G04 EasyPC Gerber Version 19.0.2 Build 3920 *
G04 #@! TF.Part,Single*
G04 #@! TF.FileFunction,Copper,L1,Bot *
%FSLAX35Y35*%
%MOIN*%
G04 #@! TA.AperFunction,SMDPad*
%ADD81R,0.04500X0.06500*%
%ADD129R,0.05100X0.05600*%
%ADD127R,0.05100X0.07600*%
%ADD130R,0.05900X0.05900*%
G04 #@! TA.AperFunction,WasherPad*
%ADD122R,0.06500X0.04500*%
G04 #@! TA.AperFunction,SMDPad*
%ADD128R,0.05600X0.05100*%
X0Y0D02*
D02*
D81*
X35700Y155050D03*
X38200Y185050D03*
X46800Y155050D03*
X49300Y185050D03*
X55700Y155050D03*
X66800D03*
X78200Y167550D03*
X89300D03*
X98200Y70050D03*
Y190050D03*
X109300Y70050D03*
Y190050D03*
X168750Y147550D03*
Y160050D03*
X178200Y182550D03*
X189300D03*
X228200Y117550D03*
X239300D03*
D02*
D122*
X78750Y129500D03*
Y140600D03*
X180000Y153800D03*
D02*
D127*
X51650Y70050D03*
Y100050D03*
X65850Y70050D03*
Y100050D03*
X91650Y127550D03*
X105850D03*
D02*
D128*
X66750Y185050D03*
X75750D03*
X199250Y172550D03*
X208250D03*
D02*
D129*
X88750Y60550D03*
Y69550D03*
D02*
D130*
X14550Y170050D03*
X17050Y45050D03*
X22050Y100050D03*
X27950Y170050D03*
X30450Y45050D03*
X35450Y100050D03*
X118750Y155850D03*
Y169250D03*
X128750Y155850D03*
Y169250D03*
X139550Y82550D03*
X152950D03*
X204550Y92550D03*
X217050Y62550D03*
X217950Y92550D03*
X230450Y62550D03*
X0Y0D02*
M02*
