G04 EasyPC Gerber Version 19.0.2 Build 3920 *
G04 #@! TF.Part,Single*
G04 #@! TF.FileFunction,Legend,Bot *
%FSLAX35Y35*%
%MOIN*%
%ADD10C,0.00500*%
%ADD20C,0.00600*%
X0Y0D02*
D02*
D10*
X20625Y36613D02*
X20937Y36300D01*
X21563Y35987*
X22500*
X23125Y36300*
X23437Y36613*
X23750Y37237*
Y38487*
X23437Y39113*
X23125Y39425*
X22500Y39737*
X21563*
X20937Y39425*
X20625Y39113*
X18125Y35987D02*
X16875D01*
X17500D02*
Y39737D01*
X18125Y39113*
X13437Y36300D02*
X12813Y35987D01*
X12187*
X11563Y36300*
X11250Y36925*
Y38800*
X11563Y39425*
X12187Y39737*
X12813*
X13437Y39425*
X13750Y38800*
Y36925*
X13437Y36300*
X11563Y39425*
X7187Y35987D02*
Y39737D01*
X8750Y37237*
X6250*
X20625Y91613D02*
X20937Y91300D01*
X21563Y90987*
X22500*
X23125Y91300*
X23437Y91613*
X23750Y92237*
Y93487*
X23437Y94113*
X23125Y94425*
X22500Y94737*
X21563*
X20937Y94425*
X20625Y94113*
X18125Y90987D02*
X16875D01*
X17500D02*
Y94737D01*
X18125Y94113*
X13437Y91300D02*
X12813Y90987D01*
X12187*
X11563Y91300*
X11250Y91925*
Y93800*
X11563Y94425*
X12187Y94737*
X12813*
X13437Y94425*
X13750Y93800*
Y91925*
X13437Y91300*
X11563Y94425*
X7187Y90987D02*
Y94737D01*
X8750Y92237*
X6250*
X27187Y145050D02*
X30937D01*
Y147237*
X30625Y147863*
X30000Y148175*
X29375Y147863*
X29063Y147237*
Y145050*
Y147237D02*
X27187Y148175D01*
Y150675D02*
Y151925D01*
Y151300D02*
X30937D01*
X30313Y150675*
X27500Y155363D02*
X27187Y155987D01*
Y156613*
X27500Y157237*
X28125Y157550*
X30000*
X30625Y157237*
X30937Y156613*
Y155987*
X30625Y155363*
X30000Y155050*
X28125*
X27500Y155363*
X30625Y157237*
X27187Y161613D02*
X30937D01*
X28437Y160050*
Y162550*
X28125Y176613D02*
X28437Y176300D01*
X29063Y175987*
X30000*
X30625Y176300*
X30937Y176613*
X31250Y177237*
Y178487*
X30937Y179113*
X30625Y179425*
X30000Y179737*
X29063*
X28437Y179425*
X28125Y179113*
X25625Y175987D02*
X24375D01*
X25000D02*
Y179737D01*
X25625Y179113*
X20937Y176300D02*
X20313Y175987D01*
X19687*
X19063Y176300*
X18750Y176925*
Y178800*
X19063Y179425*
X19687Y179737*
X20313*
X20937Y179425*
X21250Y178800*
Y176925*
X20937Y176300*
X19063Y179425*
X14687Y175987D02*
Y179737D01*
X16250Y177237*
X13750*
X32250Y166050D02*
X10250D01*
Y174050*
X32250*
Y166050*
X34750Y41050D02*
X12750D01*
Y49050*
X34750*
Y41050*
X39750Y96050D02*
X17750D01*
Y104050*
X39750*
Y96050*
X41250Y18487D02*
X38750D01*
X40000Y17237D02*
Y19737D01*
X35625Y17237D02*
X34375D01*
X35000D02*
Y20987D01*
X35625Y20363*
X28750Y17237D02*
X31250D01*
X29063Y19425*
X28750Y20050*
X29063Y20675*
X29687Y20987*
X30625*
X31250Y20675*
X45313Y76925D02*
Y75675D01*
Y76300D02*
X41563D01*
X42187Y76925*
X45313Y70050D02*
Y72550D01*
X43125Y70363*
X42500Y70050*
X41875Y70363*
X41563Y70987*
Y71925*
X41875Y72550*
X41563Y67550D02*
Y64425D01*
X45313Y67550*
Y64425*
X46250Y109113D02*
Y105363D01*
Y107237D02*
X45313D01*
X43125Y105363*
X45313Y107237D02*
X43125Y109113D01*
X47750Y75050D02*
X69750D01*
Y65050*
X47750*
Y75050*
X51250Y190987D02*
Y194737D01*
X49063*
X48437Y194425*
X48125Y193800*
X48437Y193175*
X49063Y192863*
X51250*
X49063D02*
X48125Y190987D01*
X45625D02*
X44375D01*
X45000D02*
Y194737D01*
X45625Y194113*
X40937Y191300D02*
X40313Y190987D01*
X39687*
X39063Y191300*
X38750Y191925*
Y193800*
X39063Y194425*
X39687Y194737*
X40313*
X40937Y194425*
X41250Y193800*
Y191925*
X40937Y191300*
X39063Y194425*
X35937Y191300D02*
X35313Y190987D01*
X34687*
X34063Y191300*
X33750Y191925*
X34063Y192550*
X34687Y192863*
X35313*
X34687D02*
X34063Y193175D01*
X33750Y193800*
X34063Y194425*
X34687Y194737*
X35313*
X35937Y194425*
X53750Y131613D02*
Y127863D01*
X55937*
X56563Y128175*
X56875Y128800*
X56563Y129425*
X55937Y129737*
X53750*
X55937D02*
X56875Y131613D01*
X59375D02*
X60625D01*
X60000D02*
Y127863D01*
X59375Y128487*
X64063Y131300D02*
X64687Y131613D01*
X65313*
X65937Y131300*
X66250Y130675*
Y128800*
X65937Y128175*
X65313Y127863*
X64687*
X64063Y128175*
X63750Y128800*
Y130675*
X64063Y131300*
X65937Y128175*
X70313Y131613D02*
Y127863D01*
X68750Y130363*
X71250*
X61250Y18487D02*
X58750D01*
X55625Y17237D02*
X54375D01*
X55000D02*
Y20987D01*
X55625Y20363*
X48750Y17237D02*
X51250D01*
X49063Y19425*
X48750Y20050*
X49063Y20675*
X49687Y20987*
X50625*
X51250Y20675*
X69750Y95050D02*
X47750D01*
Y105050*
X69750*
Y95050*
X71250Y71613D02*
Y67863D01*
Y69737D02*
X72187D01*
X74375Y67863*
X72187Y69737D02*
X74375Y71613D01*
X72187Y145050D02*
X75937D01*
Y147237*
X75625Y147863*
X75000Y148175*
X74375Y147863*
X74063Y147237*
Y145050*
Y147237D02*
X72187Y148175D01*
Y151613D02*
X75937D01*
X73437Y150050*
Y152550*
X72187Y155050D02*
X75937Y157550D01*
Y155050*
X72500Y160363D02*
X72187Y160987D01*
Y161613*
X72500Y162237*
X73125Y162550*
X73750Y162237*
X74063Y161613*
Y160987*
Y161613D02*
X74375Y162237D01*
X75000Y162550*
X75625Y162237*
X75937Y161613*
Y160987*
X75625Y160363*
X75313Y104425D02*
Y103175D01*
Y103800D02*
X71563D01*
X72187Y104425*
X75313Y97550D02*
Y100050D01*
X73125Y97863*
X72500Y97550*
X71875Y97863*
X71563Y98487*
Y99425*
X71875Y100050*
X71563Y95050D02*
Y91925D01*
X75313Y95050*
Y91925*
X75625Y193487D02*
X75937Y193800D01*
X76563Y194113*
X77500*
X78125Y193800*
X78437Y193487*
X78750Y192863*
Y191613*
X78437Y190987*
X78125Y190675*
X77500Y190363*
X76563*
X75937Y190675*
X75625Y190987*
X73125Y194113D02*
X71875D01*
X72500D02*
Y190363D01*
X73125Y190987*
X68437Y193800D02*
X67813Y194113D01*
X67187*
X66563Y193800*
X66250Y193175*
Y191300*
X66563Y190675*
X67187Y190363*
X67813*
X68437Y190675*
X68750Y191300*
Y193175*
X68437Y193800*
X66563Y190675*
X63437Y193800D02*
X62813Y194113D01*
X62187*
X61563Y193800*
X61250Y193175*
X61563Y192550*
X62187Y192237*
X62813*
X62187D02*
X61563Y191925D01*
X61250Y191300*
X61563Y190675*
X62187Y190363*
X62813*
X63437Y190675*
X79250Y181550D02*
X63250D01*
Y188550*
X79250*
Y181550*
X82813Y17237D02*
X81563D01*
X82187D02*
Y20987D01*
X82813D02*
X81563D01*
X78750Y17237D02*
Y20987D01*
X75625Y17237*
Y20987*
X82187Y69425D02*
X82500Y69737D01*
X82813Y70363*
Y71300*
X82500Y71925*
X82187Y72237*
X81563Y72550*
X80313*
X79687Y72237*
X79375Y71925*
X79063Y71300*
Y70363*
X79375Y69737*
X79687Y69425*
X82813Y66925D02*
Y65675D01*
Y66300D02*
X79063D01*
X79687Y66925*
X82500Y62237D02*
X82813Y61613D01*
Y60987*
X82500Y60363*
X81875Y60050*
X80000*
X79375Y60363*
X79063Y60987*
Y61613*
X79375Y62237*
X80000Y62550*
X81875*
X82500Y62237*
X79375Y60363*
X82500Y57237D02*
X82813Y56613D01*
Y55987*
X82500Y55363*
X81875Y55050*
X81250Y55363*
X80937Y55987*
Y56613*
Y55987D02*
X80625Y55363D01*
X80000Y55050*
X79375Y55363*
X79063Y55987*
Y56613*
X79375Y57237*
X85250Y57050D02*
Y73050D01*
X92250*
Y57050*
X85250*
X91250Y133487D02*
Y137237D01*
Y135363D02*
X90313D01*
X88125Y137237*
X90313Y135363D02*
X88125Y133487D01*
X99375Y135987D02*
X100625D01*
X100000D02*
Y139737D01*
X99375Y139113*
X103750Y135987D02*
Y139737D01*
X106875Y135987*
Y139737*
X110313Y135987D02*
Y139737D01*
X108750Y137237*
X111250*
X114375Y135987D02*
X115625D01*
X115000D02*
Y139737D01*
X114375Y139113*
X120313Y135987D02*
Y139737D01*
X118750Y137237*
X121250*
X124687Y137863D02*
X125313D01*
X125937Y138175*
X126250Y138800*
X125937Y139425*
X125313Y139737*
X124687*
X124063Y139425*
X123750Y138800*
X124063Y138175*
X124687Y137863*
X124063Y137550*
X123750Y136925*
X124063Y136300*
X124687Y135987*
X125313*
X125937Y136300*
X126250Y136925*
X125937Y137550*
X125313Y137863*
X98750Y158487D02*
Y162237D01*
X96563*
X95937Y161925*
X95625Y161300*
X95937Y160675*
X96563Y160363*
X98750*
X96563D02*
X95625Y158487D01*
X93125D02*
X91875D01*
X92500D02*
Y162237D01*
X93125Y161613*
X88437Y158800D02*
X87813Y158487D01*
X87187*
X86563Y158800*
X86250Y159425*
Y161300*
X86563Y161925*
X87187Y162237*
X87813*
X88437Y161925*
X88750Y161300*
Y159425*
X88437Y158800*
X86563Y161925*
X83437Y158800D02*
X82813Y158487D01*
X82187*
X81563Y158800*
X81250Y159425*
X81563Y160050*
X82187Y160363*
X82813*
X82187D02*
X81563Y160675D01*
X81250Y161300*
X81563Y161925*
X82187Y162237*
X82813*
X83437Y161925*
X104063Y18800D02*
X103125D01*
Y18487*
X103437Y17863*
X103750Y17550*
X104375Y17237*
X105000*
X105625Y17550*
X105937Y17863*
X106250Y18487*
Y19737*
X105937Y20363*
X105625Y20675*
X105000Y20987*
X104375*
X103750Y20675*
X103437Y20363*
X103125Y19737*
X110313Y158175D02*
X110000Y157863D01*
X109687Y157237*
Y156300*
X110000Y155675*
X110313Y155363*
X110937Y155050*
X112187*
X112813Y155363*
X113125Y155675*
X113437Y156300*
Y157237*
X113125Y157863*
X112813Y158175*
X109687Y160675D02*
Y161925D01*
Y161300D02*
X113437D01*
X112813Y160675*
X110000Y165363D02*
X109687Y165987D01*
Y166613*
X110000Y167237*
X110625Y167550*
X112500*
X113125Y167237*
X113437Y166613*
Y165987*
X113125Y165363*
X112500Y165050*
X110625*
X110000Y165363*
X113125Y167237*
X109687Y171613D02*
X113437D01*
X110937Y170050*
Y172550*
X109750Y122550D02*
X87750D01*
Y132550*
X109750*
Y122550*
X111250Y195987D02*
Y199737D01*
X109063*
X108437Y199425*
X108125Y198800*
X108437Y198175*
X109063Y197863*
X111250*
X109063D02*
X108125Y195987D01*
X103750D02*
X106250D01*
X104063Y198175*
X103750Y198800*
X104063Y199425*
X104687Y199737*
X105625*
X106250Y199425*
X100937Y196300D02*
X100313Y195987D01*
X99687*
X99063Y196300*
X98750Y196925*
Y198800*
X99063Y199425*
X99687Y199737*
X100313*
X100937Y199425*
X101250Y198800*
Y196925*
X100937Y196300*
X99063Y199425*
X95937Y196300D02*
X95313Y195987D01*
X94687*
X94063Y196300*
X93750Y196925*
X94063Y197550*
X94687Y197863*
X95313*
X94687D02*
X94063Y198175D01*
X93750Y198800*
X94063Y199425*
X94687Y199737*
X95313*
X95937Y199425*
X113750Y60987D02*
Y64737D01*
X111563*
X110937Y64425*
X110625Y63800*
X110937Y63175*
X111563Y62863*
X113750*
X111563D02*
X110625Y60987D01*
X108125D02*
X106875D01*
X107500D02*
Y64737D01*
X108125Y64113*
X103437Y61300D02*
X102813Y60987D01*
X102187*
X101563Y61300*
X101250Y61925*
Y63800*
X101563Y64425*
X102187Y64737*
X102813*
X103437Y64425*
X103750Y63800*
Y61925*
X103437Y61300*
X101563Y64425*
X97187Y60987D02*
Y64737D01*
X98750Y62237*
X96250*
X122750Y173550D02*
Y151550D01*
X114750*
Y173550*
X122750*
X127500Y17237D02*
Y20987D01*
X124375*
X125000Y19113D02*
X127500D01*
Y17237D02*
X124375D01*
X132750Y173550D02*
Y151550D01*
X124750*
Y173550*
X132750*
X135313Y158175D02*
X135000Y157863D01*
X134687Y157237*
Y156300*
X135000Y155675*
X135313Y155363*
X135937Y155050*
X137187*
X137813Y155363*
X138125Y155675*
X138437Y156300*
Y157237*
X138125Y157863*
X137813Y158175*
X134687Y160675D02*
Y161925D01*
Y161300D02*
X138437D01*
X137813Y160675*
X135000Y165363D02*
X134687Y165987D01*
Y166613*
X135000Y167237*
X135625Y167550*
X137500*
X138125Y167237*
X138437Y166613*
Y165987*
X138125Y165363*
X137500Y165050*
X135625*
X135000Y165363*
X138125Y167237*
X134687Y171613D02*
X138437D01*
X135937Y170050*
Y172550*
X135250Y86550D02*
X157250D01*
Y78550*
X135250*
Y86550*
X144375Y17863D02*
X144687Y17550D01*
X145313Y17237*
X146250*
X146875Y17550*
X147187Y17863*
X147500Y18487*
Y19737*
X147187Y20363*
X146875Y20675*
X146250Y20987*
X145313*
X144687Y20675*
X144375Y20363*
X153750Y88487D02*
Y92237D01*
X151563*
X150937Y91925*
X150625Y91300*
X150937Y90675*
X151563Y90363*
X153750*
X151563D02*
X150625Y88487D01*
X146250D02*
X148750D01*
X146563Y90675*
X146250Y91300*
X146563Y91925*
X147187Y92237*
X148125*
X148750Y91925*
X141250Y88487D02*
X143750D01*
X141563Y90675*
X141250Y91300*
X141563Y91925*
X142187Y92237*
X143125*
X143750Y91925*
X138437Y88800D02*
X137813Y88487D01*
X137187*
X136563Y88800*
X136250Y89425*
Y91300*
X136563Y91925*
X137187Y92237*
X137813*
X138437Y91925*
X138750Y91300*
Y89425*
X138437Y88800*
X136563Y91925*
X165313Y19113D02*
X164687Y18800D01*
X164375Y18175*
X164687Y17550*
X165313Y17237*
X167500*
Y20987*
X165313*
X164687Y20675*
X164375Y20050*
X164687Y19425*
X165313Y19113*
X167500*
X173750Y180987D02*
Y184737D01*
X171563*
X170937Y184425*
X170625Y183800*
X170937Y183175*
X171563Y182863*
X173750*
X171563D02*
X170625Y180987D01*
X168125D02*
X166875D01*
X167500D02*
Y184737D01*
X168125Y184113*
X163437Y181300D02*
X162813Y180987D01*
X162187*
X161563Y181300*
X161250Y181925*
Y183800*
X161563Y184425*
X162187Y184737*
X162813*
X163437Y184425*
X163750Y183800*
Y181925*
X163437Y181300*
X161563Y184425*
X158750Y181300D02*
X158125Y180987D01*
X157187*
X156563Y181300*
X156250Y181925*
Y182237*
X156563Y182863*
X157187Y183175*
X158750*
Y184737*
X156250*
X187500Y17237D02*
X185937Y20987D01*
X184375Y17237*
X186875Y18800D02*
X185000D01*
X200250Y96550D02*
X222250D01*
Y88550*
X200250*
Y96550*
X205313Y18800D02*
X204375D01*
Y18487*
X204687Y17863*
X205000Y17550*
X205625Y17237*
X206250*
X206875Y17550*
X207187Y17863*
X207500Y18487*
Y19737*
X207187Y20363*
X206875Y20675*
X206250Y20987*
X205625*
X205000Y20675*
X204687Y20363*
X204375Y19737*
X208125Y180987D02*
X208437Y181300D01*
X209063Y181613*
X210000*
X210625Y181300*
X210937Y180987*
X211250Y180363*
Y179113*
X210937Y178487*
X210625Y178175*
X210000Y177863*
X209063*
X208437Y178175*
X208125Y178487*
X205625Y181613D02*
X204375D01*
X205000D02*
Y177863D01*
X205625Y178487*
X200937Y181300D02*
X200313Y181613D01*
X199687*
X199063Y181300*
X198750Y180675*
Y178800*
X199063Y178175*
X199687Y177863*
X200313*
X200937Y178175*
X201250Y178800*
Y180675*
X200937Y181300*
X199063Y178175*
X195937Y181300D02*
X195313Y181613D01*
X194687*
X194063Y181300*
X193750Y180675*
X194063Y180050*
X194687Y179737*
X195313*
X194687D02*
X194063Y179425D01*
X193750Y178800*
X194063Y178175*
X194687Y177863*
X195313*
X195937Y178175*
X211750Y169050D02*
X195750D01*
Y176050*
X211750*
Y169050*
X215625Y99113D02*
X215937Y98800D01*
X216563Y98487*
X217500*
X218125Y98800*
X218437Y99113*
X218750Y99737*
Y100987*
X218437Y101613*
X218125Y101925*
X217500Y102237*
X216563*
X215937Y101925*
X215625Y101613*
X213125Y98487D02*
X211875D01*
X212500D02*
Y102237D01*
X213125Y101613*
X208437Y98800D02*
X207813Y98487D01*
X207187*
X206563Y98800*
X206250Y99425*
Y101300*
X206563Y101925*
X207187Y102237*
X207813*
X208437Y101925*
X208750Y101300*
Y99425*
X208437Y98800*
X206563Y101925*
X202187Y98487D02*
Y102237D01*
X203750Y99737*
X201250*
X230625Y51613D02*
X230937Y51300D01*
X231563Y50987*
X232500*
X233125Y51300*
X233437Y51613*
X233750Y52237*
Y53487*
X233437Y54113*
X233125Y54425*
X232500Y54737*
X231563*
X230937Y54425*
X230625Y54113*
X228125Y50987D02*
X226875D01*
X227500D02*
Y54737D01*
X228125Y54113*
X223437Y51300D02*
X222813Y50987D01*
X222187*
X221563Y51300*
X221250Y51925*
Y53800*
X221563Y54425*
X222187Y54737*
X222813*
X223437Y54425*
X223750Y53800*
Y51925*
X223437Y51300*
X221563Y54425*
X217187Y50987D02*
Y54737D01*
X218750Y52237*
X216250*
X234750Y58550D02*
X212750D01*
Y66550*
X234750*
Y58550*
X241250Y123487D02*
Y127237D01*
X239063*
X238437Y126925*
X238125Y126300*
X238437Y125675*
X239063Y125363*
X241250*
X239063D02*
X238125Y123487D01*
X235625D02*
X234375D01*
X235000D02*
Y127237D01*
X235625Y126613*
X230937Y123800D02*
X230313Y123487D01*
X229687*
X229063Y123800*
X228750Y124425*
Y126300*
X229063Y126925*
X229687Y127237*
X230313*
X230937Y126925*
X231250Y126300*
Y124425*
X230937Y123800*
X229063Y126925*
X224687Y123487D02*
Y127237D01*
X226250Y124737*
X223750*
D02*
D20*
X32750Y185050D02*
G75*
G02X32150I-300D01*
G01*
G75*
G02X32750I300*
G01*
X39361Y159000D02*
X43139D01*
X41861Y189000D02*
X45639D01*
X43139Y151100D02*
X39361D01*
X45639Y181100D02*
X41861D01*
X52250Y155050D02*
G75*
G02X52850I300D01*
G01*
G75*
G02X52250I-300*
G01*
X59361Y159000D02*
X63139D01*
Y151100D02*
X59361D01*
X72250Y155050D02*
G75*
G02X72850I300D01*
G01*
G75*
G02X72250I-300*
G01*
X74800Y133161D02*
Y136939D01*
X78750Y146050D02*
G75*
G02Y146650J300D01*
G01*
G75*
G02Y146050J-300*
G01*
X81861Y171500D02*
X85639D01*
X82700Y136939D02*
Y133161D01*
X85639Y163600D02*
X81861D01*
X92750Y70050D02*
G75*
G02X92150I-300D01*
G01*
G75*
G02X92750I300*
G01*
X94750Y167550D02*
G75*
G02X95350I300D01*
G01*
G75*
G02X94750I-300*
G01*
X101861Y74000D02*
X105639D01*
X101861Y194000D02*
X105639D01*
Y66100D02*
X101861D01*
X105639Y186100D02*
X101861D01*
X114750Y190050D02*
G75*
G02X115350I300D01*
G01*
G75*
G02X114750I-300*
G01*
X181861Y186500D02*
X185639D01*
Y178600D02*
X181861D01*
X194750Y182550D02*
G75*
G02X195350I300D01*
G01*
G75*
G02X194750I-300*
G01*
X222750Y117550D02*
G75*
G02X222150I-300D01*
G01*
G75*
G02X222750I300*
G01*
X231861Y121500D02*
X235639D01*
Y113600D02*
X231861D01*
X0Y0D02*
M02*
