G04 EasyPC Gerber Version 19.0.2 Build 3920 *
G04 #@! TF.Part,Single*
G04 #@! TF.FileFunction,Copper,L1,Bot *
%FSLAX35Y35*%
%MOIN*%
G04 #@! TA.AperFunction,WasherPad*
%AMT97*0 Octagon Pad at angle 0*4,1,8,-0.04892,-0.11811,0.04892,-0.11811,0.11811,-0.04892,0.11811,0.04892,0.04892,0.11811,-0.04892,0.11811,-0.11811,0.04892,-0.11811,-0.04892,-0.04892,-0.11811,0*%
%ADD97T97*%
G04 #@! TA.AperFunction,ComponentPad*
%ADD114O,0.05984X0.09843*%
%ADD111O,0.06000X0.11000*%
%ADD115O,0.06000X0.12000*%
G04 #@! TA.AperFunction,WasherPad*
%ADD131O,0.11024X0.14961*%
G04 #@! TA.AperFunction,SMDPad*
%ADD71R,0.04900X0.06900*%
%ADD116R,0.05500X0.06000*%
%ADD112R,0.05500X0.08000*%
%ADD117R,0.06300X0.06300*%
G04 #@! TD.AperFunction*
%ADD11C,0.02500*%
%ADD102C,0.02953*%
%ADD93C,0.03959*%
G04 #@! TA.AperFunction,WasherPad*
%ADD92O,0.08858X0.06299*%
G04 #@! TA.AperFunction,ComponentPad*
%ADD99C,0.07874*%
G04 #@! TA.AperFunction,WasherPad*
%ADD110R,0.06900X0.04900*%
G04 #@! TA.AperFunction,SMDPad*
%ADD113R,0.06000X0.05500*%
X0Y0D02*
D02*
D11*
X33750Y30050D02*
X221250D01*
Y3800*
X33750*
Y30050*
G36*
X221250*
Y3800*
X33750*
Y30050*
G37*
X77500Y25050D02*
Y45050D01*
X80000*
Y25050*
X77500*
G36*
Y45050*
X80000*
Y25050*
X77500*
G37*
X101250D02*
Y60050D01*
X116250*
Y25050*
X101250*
G36*
Y60050*
X116250*
Y25050*
X101250*
G37*
X218750Y65050D02*
Y27550D01*
X200000*
Y65050*
X218750*
G36*
Y27550*
X200000*
Y65050*
X218750*
G37*
X221250Y3800D02*
X77500D01*
Y40050*
X221250*
Y3800*
G36*
X77500*
Y40050*
X221250*
Y3800*
G37*
X241250Y90050D02*
X248750D01*
Y37550*
X241250*
Y90050*
G36*
X248750*
Y37550*
X241250*
Y90050*
G37*
X248750Y32550D02*
X206250D01*
Y52550*
X248750*
Y32550*
G36*
X206250*
Y52550*
X248750*
Y32550*
G37*
D02*
D71*
X35700Y155050D03*
X38200Y185050D03*
X46800Y155050D03*
X49300Y185050D03*
X55700Y155050D03*
X66800D03*
X78200Y167550D03*
X89300D03*
X98200Y70050D03*
Y190050D03*
X109300Y70050D03*
Y190050D03*
X168750Y147550D03*
Y160050D03*
X178200Y182550D03*
X189300D03*
X228200Y117550D03*
X239300D03*
D02*
D92*
X241250Y137550D03*
Y147550D03*
Y157550D03*
D02*
D93*
X11250Y115050D02*
X6250D01*
Y145050*
X13750*
X14550Y170050D02*
X13750D01*
Y155050*
X16250Y60050D02*
Y45050D01*
X17050*
X16250Y85050D02*
Y60050D01*
X18750Y115050D02*
Y85050D01*
X16250*
X22050Y100050D02*
X18750D01*
Y115050*
X26250Y85050D02*
X16250D01*
X26250Y115050D02*
Y155050D01*
X35700*
X26250Y115050D02*
X51650D01*
X30450Y45050D02*
X33750D01*
Y37550D02*
Y60050D01*
X26250*
X33750Y45050D02*
Y37550D01*
Y85050D02*
Y45050D01*
X35450Y100050D02*
X41250D01*
Y85050*
X36250Y170050D02*
X27950D01*
X36250D02*
Y200050D01*
X98200*
X36250Y170050D02*
X35700D01*
Y155050*
X41250Y85050D02*
X51650D01*
X46250Y140050D02*
Y127550D01*
X91650*
X46250Y170050D02*
X56250D01*
X49300Y185050D02*
X56250D01*
X51650Y70050D02*
Y85050D01*
X56250*
X51650Y100050D02*
Y115050D01*
X56250*
Y140050D02*
Y155050D01*
X46800*
X56250Y170050D02*
Y185050D01*
X66750*
X65850Y100050D02*
X66250D01*
Y85050*
Y70050*
X65850*
X66250Y115050D02*
X76250D01*
X66250Y140050D02*
Y147550D01*
X78750*
X66800Y155050D02*
X66250D01*
Y140050*
X68750Y52550D02*
Y37550D01*
X33750*
X76250Y85050D02*
X86250D01*
X76250Y115050D02*
Y85050D01*
X78750Y140600D02*
Y147550D01*
X88750*
X86250Y85050D02*
X96250D01*
X86250Y115050D02*
X96250D01*
X88750Y60550D02*
Y52550D01*
Y69550D02*
X65850D01*
Y70050*
X88750Y147550D02*
Y137550D01*
X126250*
X88750Y177550D02*
Y167550D01*
X106250*
Y157550*
X118750*
Y147550*
X91650Y127550D02*
X78750D01*
Y129500*
X96250Y115050D02*
X106250D01*
X98200Y70050D02*
X88750D01*
Y69550*
X98200Y190050D02*
Y200050D01*
Y190050D02*
X88750D01*
Y177550*
X98200Y200050D02*
X138750D01*
X98750Y147550D02*
Y157550D01*
X78200*
Y167550*
X98750Y177550D02*
X108750D01*
X105850Y127550D02*
X116250D01*
Y115050*
X108750Y52550D02*
Y70050D01*
X116250*
Y85050*
X108750Y177550D02*
Y190050D01*
X109300*
Y70050D02*
X108750D01*
Y52550*
X116250Y85050D02*
Y100050D01*
X126250*
Y137550*
X118750Y147550D02*
Y155850D01*
Y177550D02*
Y169250D01*
X126250Y137550D02*
X128750D01*
Y155850*
Y70050D02*
Y52550D01*
Y169250D02*
Y190050D01*
X109300*
X138750Y70050D02*
X148750D01*
Y52550*
X138750Y100050D02*
Y82550D01*
X139550*
X138750Y200050D02*
X148750D01*
Y195050*
Y142550D02*
X138750D01*
Y200050*
X148750Y142550D02*
Y127550D01*
X158750*
Y112550*
Y22550D02*
X108750D01*
Y52550*
X168750Y67550D02*
Y82550D01*
X152950*
X168750Y67550D02*
Y52550D01*
X178750Y97550D02*
X168750D01*
X178750Y195050D02*
Y182550D01*
X178200*
X188750Y67550D02*
Y82550D01*
X178750*
Y97550*
X188750Y165050D02*
Y153800D01*
X218750*
Y165050*
X198750Y112550D02*
Y127550D01*
X208750*
Y142550*
X198750Y165050D02*
Y172550D01*
X204550Y77550D02*
X188750D01*
Y67550*
X204550Y92550D02*
Y77550D01*
X208750Y52550D02*
X218750D01*
Y77550*
X208750Y52550D02*
Y22550D01*
X158750*
X208750Y112550D02*
X218750D01*
X208750Y165050D02*
Y172550D01*
X211250Y77550D02*
X204550D01*
X217050Y62550D02*
X218750D01*
Y77550*
X217950Y92550D02*
X218750D01*
Y100050*
Y112550*
Y77550*
Y112550D02*
Y142550D01*
Y165050D02*
Y142550D01*
Y195050D02*
Y182550D01*
X228200Y173100*
Y117550*
X218750Y195050D02*
Y182550D01*
X189300*
X230450Y62550D02*
X231250D01*
Y77550*
X226250*
X231250Y100050D02*
X218750D01*
X241250D02*
Y117550D01*
X239300*
X241250Y147550D02*
Y157550D01*
D02*
D97*
X13750Y12550D03*
Y192550D03*
X241250Y12550D03*
Y192550D03*
D02*
D99*
X13750Y145050D03*
Y155050D03*
X16250Y60050D03*
X26250D03*
X231250Y100050D03*
X241250D03*
D02*
D102*
X78200Y167550D02*
Y185050D01*
X75750*
X158750Y67550D02*
Y22550D01*
X178750Y67550D02*
Y52550D01*
X188750*
X198750Y172550D02*
X199250D01*
X208750D02*
X208250D01*
D02*
D110*
X78750Y129500D03*
Y140600D03*
X180000Y153800D03*
D02*
D111*
X36250Y140050D03*
Y170050D03*
X46250Y140050D03*
Y170050D03*
X56250Y85050D03*
Y115050D03*
Y140050D03*
Y170050D03*
X66250Y85050D03*
Y115050D03*
Y140050D03*
Y170050D03*
X76250Y85050D03*
Y115050D03*
X86250Y85050D03*
Y115050D03*
X88750Y147550D03*
Y177550D03*
X96250Y85050D03*
Y115050D03*
X98750Y147550D03*
Y177550D03*
X106250Y85050D03*
Y115050D03*
X108750Y147550D03*
Y177550D03*
X116250Y85050D03*
Y115050D03*
X118750Y147550D03*
Y177550D03*
X148750Y112550D03*
Y142550D03*
Y165050D03*
Y195050D03*
X158750Y67550D03*
Y97550D03*
Y112550D03*
Y142550D03*
Y165050D03*
Y195050D03*
X168750Y67550D03*
Y97550D03*
Y112550D03*
Y142550D03*
Y165050D03*
Y195050D03*
X178750Y67550D03*
Y97550D03*
Y112550D03*
Y142550D03*
Y165050D03*
Y195050D03*
X188750Y67550D03*
Y97550D03*
Y112550D03*
Y142550D03*
Y165050D03*
Y195050D03*
X198750Y112550D03*
Y142550D03*
Y165050D03*
Y195050D03*
X208750Y112550D03*
Y142550D03*
Y165050D03*
Y195050D03*
X218750Y112550D03*
Y142550D03*
Y165050D03*
Y195050D03*
D02*
D112*
X51650Y70050D03*
Y100050D03*
X65850Y70050D03*
Y100050D03*
X91650Y127550D03*
X105850D03*
D02*
D113*
X66750Y185050D03*
X75750D03*
X199250Y172550D03*
X208250D03*
D02*
D114*
X11250Y115050D03*
X18750D03*
X26250Y85050D03*
Y115050D03*
X33750Y85050D03*
X41250D03*
X211250Y77550D03*
X218750D03*
X226250D03*
D02*
D115*
X128750Y70050D03*
Y100050D03*
X138750Y70050D03*
Y100050D03*
D02*
D116*
X88750Y60550D03*
Y69550D03*
D02*
D117*
X14550Y170050D03*
X17050Y45050D03*
X22050Y100050D03*
X27950Y170050D03*
X30450Y45050D03*
X35450Y100050D03*
X118750Y155850D03*
Y169250D03*
X128750Y155850D03*
Y169250D03*
X139550Y82550D03*
X152950D03*
X204550Y92550D03*
X217050Y62550D03*
X217950Y92550D03*
X230450Y62550D03*
D02*
D131*
X48750Y52550D03*
X68750D03*
X88750D03*
X108750D03*
X128750D03*
X148750D03*
X168750D03*
X188750D03*
X208750D03*
X0Y0D02*
M02*
