G04 EasyPC Gerber Version 19.0.2 Build 3920 *
G04 #@! TF.Part,Single*
%FSLAX35Y35*%
%MOIN*%
%ADD10C,0.00500*%
G04 #@! TA.AperFunction,WasherPad*
%ADD83C,0.10000*%
X0Y0D02*
D02*
D10*
X21250Y120987D02*
Y124737D01*
X24375*
X23750Y122863D02*
X21250D01*
Y120987D02*
X24375D01*
X26875Y19113D02*
X26563Y18800D01*
X25937Y18487*
X25000*
X24375Y18800*
X24063Y19113*
X23750Y19737*
Y20987*
X24063Y21613*
X24375Y21925*
X25000Y22237*
X25937*
X26563Y21925*
X26875Y21613*
X25937Y152863D02*
X26563Y152550D01*
X26875Y151925*
X26563Y151300*
X25937Y150987*
X23750*
Y154737*
X25937*
X26563Y154425*
X26875Y153800*
X26563Y153175*
X25937Y152863*
X23750*
X25937Y162863D02*
X26563Y162550D01*
X26875Y161925*
X26563Y161300*
X25937Y160987*
X23750*
Y164737*
X25937*
X26563Y164425*
X26875Y163800*
X26563Y163175*
X25937Y162863*
X23750*
X26875Y199113D02*
X26563Y198800D01*
X25937Y198487*
X25000*
X24375Y198800*
X24063Y199113*
X23750Y199737*
Y200987*
X24063Y201613*
X24375Y201925*
X25000Y202237*
X25937*
X26563Y201925*
X26875Y201613*
X28437Y67863D02*
X29063Y67550D01*
X29375Y66925*
X29063Y66300*
X28437Y65987*
X26250*
Y69737*
X28437*
X29063Y69425*
X29375Y68800*
X29063Y68175*
X28437Y67863*
X26250*
X28750Y120987D02*
Y124737D01*
X31875*
X31250Y122863D02*
X28750D01*
Y120987D02*
X31875D01*
X38437Y67863D02*
X39063Y67550D01*
X39375Y66925*
X39063Y66300*
X38437Y65987*
X36250*
Y69737*
X38437*
X39063Y69425*
X39375Y68800*
X39063Y68175*
X38437Y67863*
X36250*
Y90987D02*
Y94737D01*
X39375*
X38750Y92863D02*
X36250D01*
Y90987D02*
X39375D01*
X36250Y120987D02*
Y124737D01*
X39375*
X38750Y122863D02*
X36250D01*
Y120987D02*
X39375D01*
X43750Y90987D02*
Y94737D01*
X46875*
X46250Y92863D02*
X43750D01*
Y90987D02*
X46875D01*
X46250Y145987D02*
Y149737D01*
X48125*
X48750Y149425*
X49063Y149113*
X49375Y148487*
Y147237*
X49063Y146613*
X48750Y146300*
X48125Y145987*
X46250*
Y175987D02*
Y179737D01*
X48125*
X48750Y179425*
X49063Y179113*
X49375Y178487*
Y177237*
X49063Y176613*
X48750Y176300*
X48125Y175987*
X46250*
X51250Y90987D02*
Y94737D01*
X54375*
X53750Y92863D02*
X51250D01*
Y90987D02*
X54375D01*
X56250Y145987D02*
Y149737D01*
X58125*
X58750Y149425*
X59063Y149113*
X59375Y148487*
Y147237*
X59063Y146613*
X58750Y146300*
X58125Y145987*
X56250*
Y175987D02*
Y179737D01*
X58125*
X58750Y179425*
X59063Y179113*
X59375Y178487*
Y177237*
X59063Y176613*
X58750Y176300*
X58125Y175987*
X56250*
X58750Y58487D02*
X60313Y62237D01*
X61875Y58487*
X59375Y60050D02*
X61250D01*
X66250Y90987D02*
Y94737D01*
X68125*
X68750Y94425*
X69063Y94113*
X69375Y93487*
Y92237*
X69063Y91613*
X68750Y91300*
X68125Y90987*
X66250*
Y120987D02*
Y124737D01*
X68125*
X68750Y124425*
X69063Y124113*
X69375Y123487*
Y122237*
X69063Y121613*
X68750Y121300*
X68125Y120987*
X66250*
Y145987D02*
Y149737D01*
X68125*
X68750Y149425*
X69063Y149113*
X69375Y148487*
Y147237*
X69063Y146613*
X68750Y146300*
X68125Y145987*
X66250*
Y175987D02*
Y179737D01*
X68125*
X68750Y179425*
X69063Y179113*
X69375Y178487*
Y177237*
X69063Y176613*
X68750Y176300*
X68125Y175987*
X66250*
X76250Y90987D02*
Y94737D01*
X78125*
X78750Y94425*
X79063Y94113*
X79375Y93487*
Y92237*
X79063Y91613*
X78750Y91300*
X78125Y90987*
X76250*
Y120987D02*
Y124737D01*
X78125*
X78750Y124425*
X79063Y124113*
X79375Y123487*
Y122237*
X79063Y121613*
X78750Y121300*
X78125Y120987*
X76250*
Y145987D02*
Y149737D01*
X78125*
X78750Y149425*
X79063Y149113*
X79375Y148487*
Y147237*
X79063Y146613*
X78750Y146300*
X78125Y145987*
X76250*
Y175987D02*
Y179737D01*
X78125*
X78750Y179425*
X79063Y179113*
X79375Y178487*
Y177237*
X79063Y176613*
X78750Y176300*
X78125Y175987*
X76250*
X78750Y58487D02*
X80313Y62237D01*
X81875Y58487*
X79375Y60050D02*
X81250D01*
X86250Y90987D02*
Y94737D01*
X88125*
X88750Y94425*
X89063Y94113*
X89375Y93487*
Y92237*
X89063Y91613*
X88750Y91300*
X88125Y90987*
X86250*
Y120987D02*
Y124737D01*
X88125*
X88750Y124425*
X89063Y124113*
X89375Y123487*
Y122237*
X89063Y121613*
X88750Y121300*
X88125Y120987*
X86250*
X96250Y90987D02*
Y94737D01*
X98125*
X98750Y94425*
X99063Y94113*
X99375Y93487*
Y92237*
X99063Y91613*
X98750Y91300*
X98125Y90987*
X96250*
Y120987D02*
Y124737D01*
X98125*
X98750Y124425*
X99063Y124113*
X99375Y123487*
Y122237*
X99063Y121613*
X98750Y121300*
X98125Y120987*
X96250*
X98750Y58487D02*
X100313Y62237D01*
X101875Y58487*
X99375Y60050D02*
X101250D01*
X98750Y153487D02*
Y157237D01*
X100625*
X101250Y156925*
X101563Y156613*
X101875Y155987*
Y154737*
X101563Y154113*
X101250Y153800*
X100625Y153487*
X98750*
Y183487D02*
Y187237D01*
X100625*
X101250Y186925*
X101563Y186613*
X101875Y185987*
Y184737*
X101563Y184113*
X101250Y183800*
X100625Y183487*
X98750*
X106250Y90987D02*
Y94737D01*
X108125*
X108750Y94425*
X109063Y94113*
X109375Y93487*
Y92237*
X109063Y91613*
X108750Y91300*
X108125Y90987*
X106250*
Y120987D02*
Y124737D01*
X108125*
X108750Y124425*
X109063Y124113*
X109375Y123487*
Y122237*
X109063Y121613*
X108750Y121300*
X108125Y120987*
X106250*
X108750Y153487D02*
Y157237D01*
X110625*
X111250Y156925*
X111563Y156613*
X111875Y155987*
Y154737*
X111563Y154113*
X111250Y153800*
X110625Y153487*
X108750*
Y183487D02*
Y187237D01*
X110625*
X111250Y186925*
X111563Y186613*
X111875Y185987*
Y184737*
X111563Y184113*
X111250Y183800*
X110625Y183487*
X108750*
X116250Y90987D02*
Y94737D01*
X118125*
X118750Y94425*
X119063Y94113*
X119375Y93487*
Y92237*
X119063Y91613*
X118750Y91300*
X118125Y90987*
X116250*
Y120987D02*
Y124737D01*
X118125*
X118750Y124425*
X119063Y124113*
X119375Y123487*
Y122237*
X119063Y121613*
X118750Y121300*
X118125Y120987*
X116250*
X118750Y58487D02*
X120313Y62237D01*
X121875Y58487*
X119375Y60050D02*
X121250D01*
X118750Y153487D02*
Y157237D01*
X120625*
X121250Y156925*
X121563Y156613*
X121875Y155987*
Y154737*
X121563Y154113*
X121250Y153800*
X120625Y153487*
X118750*
Y183487D02*
Y187237D01*
X120625*
X121250Y186925*
X121563Y186613*
X121875Y185987*
Y184737*
X121563Y184113*
X121250Y183800*
X120625Y183487*
X118750*
X126250Y90987D02*
Y94737D01*
X128125*
X128750Y94425*
X129063Y94113*
X129375Y93487*
Y92237*
X129063Y91613*
X128750Y91300*
X128125Y90987*
X126250*
Y120987D02*
Y124737D01*
X128125*
X128750Y124425*
X129063Y124113*
X129375Y123487*
Y122237*
X129063Y121613*
X128750Y121300*
X128125Y120987*
X126250*
X128750Y153487D02*
Y157237D01*
X130625*
X131250Y156925*
X131563Y156613*
X131875Y155987*
Y154737*
X131563Y154113*
X131250Y153800*
X130625Y153487*
X128750*
Y183487D02*
Y187237D01*
X130625*
X131250Y186925*
X131563Y186613*
X131875Y185987*
Y184737*
X131563Y184113*
X131250Y183800*
X130625Y183487*
X128750*
X138750Y58487D02*
X140313Y62237D01*
X141875Y58487*
X139375Y60050D02*
X141250D01*
X138750Y75987D02*
Y79737D01*
X140625*
X141250Y79425*
X141563Y79113*
X141875Y78487*
Y77237*
X141563Y76613*
X141250Y76300*
X140625Y75987*
X138750*
Y105987D02*
Y109737D01*
X140625*
X141250Y109425*
X141563Y109113*
X141875Y108487*
Y107237*
X141563Y106613*
X141250Y106300*
X140625Y105987*
X138750*
X148750Y75987D02*
Y79737D01*
X150625*
X151250Y79425*
X151563Y79113*
X151875Y78487*
Y77237*
X151563Y76613*
X151250Y76300*
X150625Y75987*
X148750*
Y105987D02*
Y109737D01*
X150625*
X151250Y109425*
X151563Y109113*
X151875Y108487*
Y107237*
X151563Y106613*
X151250Y106300*
X150625Y105987*
X148750*
X158750Y58487D02*
X160313Y62237D01*
X161875Y58487*
X159375Y60050D02*
X161250D01*
X158750Y118487D02*
Y122237D01*
X160625*
X161250Y121925*
X161563Y121613*
X161875Y120987*
Y119737*
X161563Y119113*
X161250Y118800*
X160625Y118487*
X158750*
Y148487D02*
Y152237D01*
X160625*
X161250Y151925*
X161563Y151613*
X161875Y150987*
Y149737*
X161563Y149113*
X161250Y148800*
X160625Y148487*
X158750*
Y170987D02*
Y174737D01*
X160625*
X161250Y174425*
X161563Y174113*
X161875Y173487*
Y172237*
X161563Y171613*
X161250Y171300*
X160625Y170987*
X158750*
Y200987D02*
Y204737D01*
X160625*
X161250Y204425*
X161563Y204113*
X161875Y203487*
Y202237*
X161563Y201613*
X161250Y201300*
X160625Y200987*
X158750*
X168750Y73487D02*
Y77237D01*
X170625*
X171250Y76925*
X171563Y76613*
X171875Y75987*
Y74737*
X171563Y74113*
X171250Y73800*
X170625Y73487*
X168750*
Y103487D02*
Y107237D01*
X170625*
X171250Y106925*
X171563Y106613*
X171875Y105987*
Y104737*
X171563Y104113*
X171250Y103800*
X170625Y103487*
X168750*
Y118487D02*
Y122237D01*
X170625*
X171250Y121925*
X171563Y121613*
X171875Y120987*
Y119737*
X171563Y119113*
X171250Y118800*
X170625Y118487*
X168750*
Y148487D02*
Y152237D01*
X170625*
X171250Y151925*
X171563Y151613*
X171875Y150987*
Y149737*
X171563Y149113*
X171250Y148800*
X170625Y148487*
X168750*
Y170987D02*
Y174737D01*
X170625*
X171250Y174425*
X171563Y174113*
X171875Y173487*
Y172237*
X171563Y171613*
X171250Y171300*
X170625Y170987*
X168750*
Y200987D02*
Y204737D01*
X170625*
X171250Y204425*
X171563Y204113*
X171875Y203487*
Y202237*
X171563Y201613*
X171250Y201300*
X170625Y200987*
X168750*
X178750Y58487D02*
X180313Y62237D01*
X181875Y58487*
X179375Y60050D02*
X181250D01*
X178750Y73487D02*
Y77237D01*
X180625*
X181250Y76925*
X181563Y76613*
X181875Y75987*
Y74737*
X181563Y74113*
X181250Y73800*
X180625Y73487*
X178750*
Y103487D02*
Y107237D01*
X180625*
X181250Y106925*
X181563Y106613*
X181875Y105987*
Y104737*
X181563Y104113*
X181250Y103800*
X180625Y103487*
X178750*
Y118487D02*
Y122237D01*
X180625*
X181250Y121925*
X181563Y121613*
X181875Y120987*
Y119737*
X181563Y119113*
X181250Y118800*
X180625Y118487*
X178750*
Y148487D02*
Y152237D01*
X180625*
X181250Y151925*
X181563Y151613*
X181875Y150987*
Y149737*
X181563Y149113*
X181250Y148800*
X180625Y148487*
X178750*
Y170987D02*
Y174737D01*
X180625*
X181250Y174425*
X181563Y174113*
X181875Y173487*
Y172237*
X181563Y171613*
X181250Y171300*
X180625Y170987*
X178750*
Y200987D02*
Y204737D01*
X180625*
X181250Y204425*
X181563Y204113*
X181875Y203487*
Y202237*
X181563Y201613*
X181250Y201300*
X180625Y200987*
X178750*
X188750Y73487D02*
Y77237D01*
X190625*
X191250Y76925*
X191563Y76613*
X191875Y75987*
Y74737*
X191563Y74113*
X191250Y73800*
X190625Y73487*
X188750*
Y103487D02*
Y107237D01*
X190625*
X191250Y106925*
X191563Y106613*
X191875Y105987*
Y104737*
X191563Y104113*
X191250Y103800*
X190625Y103487*
X188750*
Y118487D02*
Y122237D01*
X190625*
X191250Y121925*
X191563Y121613*
X191875Y120987*
Y119737*
X191563Y119113*
X191250Y118800*
X190625Y118487*
X188750*
Y148487D02*
Y152237D01*
X190625*
X191250Y151925*
X191563Y151613*
X191875Y150987*
Y149737*
X191563Y149113*
X191250Y148800*
X190625Y148487*
X188750*
Y170987D02*
Y174737D01*
X190625*
X191250Y174425*
X191563Y174113*
X191875Y173487*
Y172237*
X191563Y171613*
X191250Y171300*
X190625Y170987*
X188750*
Y200987D02*
Y204737D01*
X190625*
X191250Y204425*
X191563Y204113*
X191875Y203487*
Y202237*
X191563Y201613*
X191250Y201300*
X190625Y200987*
X188750*
X198750Y58487D02*
X200313Y62237D01*
X201875Y58487*
X199375Y60050D02*
X201250D01*
X198750Y73487D02*
Y77237D01*
X200625*
X201250Y76925*
X201563Y76613*
X201875Y75987*
Y74737*
X201563Y74113*
X201250Y73800*
X200625Y73487*
X198750*
Y103487D02*
Y107237D01*
X200625*
X201250Y106925*
X201563Y106613*
X201875Y105987*
Y104737*
X201563Y104113*
X201250Y103800*
X200625Y103487*
X198750*
Y118487D02*
Y122237D01*
X200625*
X201250Y121925*
X201563Y121613*
X201875Y120987*
Y119737*
X201563Y119113*
X201250Y118800*
X200625Y118487*
X198750*
Y148487D02*
Y152237D01*
X200625*
X201250Y151925*
X201563Y151613*
X201875Y150987*
Y149737*
X201563Y149113*
X201250Y148800*
X200625Y148487*
X198750*
Y170987D02*
Y174737D01*
X200625*
X201250Y174425*
X201563Y174113*
X201875Y173487*
Y172237*
X201563Y171613*
X201250Y171300*
X200625Y170987*
X198750*
Y200987D02*
Y204737D01*
X200625*
X201250Y204425*
X201563Y204113*
X201875Y203487*
Y202237*
X201563Y201613*
X201250Y201300*
X200625Y200987*
X198750*
X208750Y118487D02*
Y122237D01*
X210625*
X211250Y121925*
X211563Y121613*
X211875Y120987*
Y119737*
X211563Y119113*
X211250Y118800*
X210625Y118487*
X208750*
Y148487D02*
Y152237D01*
X210625*
X211250Y151925*
X211563Y151613*
X211875Y150987*
Y149737*
X211563Y149113*
X211250Y148800*
X210625Y148487*
X208750*
Y170987D02*
Y174737D01*
X210625*
X211250Y174425*
X211563Y174113*
X211875Y173487*
Y172237*
X211563Y171613*
X211250Y171300*
X210625Y170987*
X208750*
Y200987D02*
Y204737D01*
X210625*
X211250Y204425*
X211563Y204113*
X211875Y203487*
Y202237*
X211563Y201613*
X211250Y201300*
X210625Y200987*
X208750*
X218750Y58487D02*
X220313Y62237D01*
X221875Y58487*
X219375Y60050D02*
X221250D01*
X218750Y118487D02*
Y122237D01*
X220625*
X221250Y121925*
X221563Y121613*
X221875Y120987*
Y119737*
X221563Y119113*
X221250Y118800*
X220625Y118487*
X218750*
Y148487D02*
Y152237D01*
X220625*
X221250Y151925*
X221563Y151613*
X221875Y150987*
Y149737*
X221563Y149113*
X221250Y148800*
X220625Y148487*
X218750*
Y170987D02*
Y174737D01*
X220625*
X221250Y174425*
X221563Y174113*
X221875Y173487*
Y172237*
X221563Y171613*
X221250Y171300*
X220625Y170987*
X218750*
Y200987D02*
Y204737D01*
X220625*
X221250Y204425*
X221563Y204113*
X221875Y203487*
Y202237*
X221563Y201613*
X221250Y201300*
X220625Y200987*
X218750*
X221250Y83487D02*
Y87237D01*
X224375*
X223750Y85363D02*
X221250D01*
Y83487D02*
X224375D01*
X228750D02*
Y87237D01*
X231875*
X231250Y85363D02*
X228750D01*
Y83487D02*
X231875D01*
X228750Y118487D02*
Y122237D01*
X230625*
X231250Y121925*
X231563Y121613*
X231875Y120987*
Y119737*
X231563Y119113*
X231250Y118800*
X230625Y118487*
X228750*
Y148487D02*
Y152237D01*
X230625*
X231250Y151925*
X231563Y151613*
X231875Y150987*
Y149737*
X231563Y149113*
X231250Y148800*
X230625Y148487*
X228750*
Y170987D02*
Y174737D01*
X230625*
X231250Y174425*
X231563Y174113*
X231875Y173487*
Y172237*
X231563Y171613*
X231250Y171300*
X230625Y170987*
X228750*
Y200987D02*
Y204737D01*
X230625*
X231250Y204425*
X231563Y204113*
X231875Y203487*
Y202237*
X231563Y201613*
X231250Y201300*
X230625Y200987*
X228750*
X236250Y83487D02*
Y87237D01*
X239375*
X238750Y85363D02*
X236250D01*
Y83487D02*
X239375D01*
X243437Y107863D02*
X244063Y107550D01*
X244375Y106925*
X244063Y106300*
X243437Y105987*
X241250*
Y109737*
X243437*
X244063Y109425*
X244375Y108800*
X244063Y108175*
X243437Y107863*
X241250*
X254375Y19113D02*
X254063Y18800D01*
X253437Y18487*
X252500*
X251875Y18800*
X251563Y19113*
X251250Y19737*
Y20987*
X251563Y21613*
X251875Y21925*
X252500Y22237*
X253437*
X254063Y21925*
X254375Y21613*
X253437Y107863D02*
X254063Y107550D01*
X254375Y106925*
X254063Y106300*
X253437Y105987*
X251250*
Y109737*
X253437*
X254063Y109425*
X254375Y108800*
X254063Y108175*
X253437Y107863*
X251250*
X253437Y145363D02*
X254063Y145050D01*
X254375Y144425*
X254063Y143800*
X253437Y143487*
X251250*
Y147237*
X253437*
X254063Y146925*
X254375Y146300*
X254063Y145675*
X253437Y145363*
X251250*
X253437Y155363D02*
X254063Y155050D01*
X254375Y154425*
X254063Y153800*
X253437Y153487*
X251250*
Y157237*
X253437*
X254063Y156925*
X254375Y156300*
X254063Y155675*
X253437Y155363*
X251250*
X253437Y165363D02*
X254063Y165050D01*
X254375Y164425*
X254063Y163800*
X253437Y163487*
X251250*
Y167237*
X253437*
X254063Y166925*
X254375Y166300*
X254063Y165675*
X253437Y165363*
X251250*
X254375Y199113D02*
X254063Y198800D01*
X253437Y198487*
X252500*
X251875Y198800*
X251563Y199113*
X251250Y199737*
Y200987*
X251563Y201613*
X251875Y201925*
X252500Y202237*
X253437*
X254063Y201925*
X254375Y201613*
D02*
D83*
X11250Y115050D03*
X13750Y12550D03*
Y145050D03*
Y155050D03*
Y192550D03*
X16250Y60050D03*
X18750Y115050D03*
X26250Y60050D03*
Y85050D03*
Y115050D03*
X33750Y85050D03*
X36250Y140050D03*
Y170050D03*
X41250Y85050D03*
X46250Y140050D03*
Y170050D03*
X48750Y52550D03*
X56250Y85050D03*
Y115050D03*
Y140050D03*
Y170050D03*
X66250Y85050D03*
Y115050D03*
Y140050D03*
Y170050D03*
X68750Y52550D03*
X76250Y85050D03*
Y115050D03*
X86250Y85050D03*
Y115050D03*
X88750Y52550D03*
Y147550D03*
Y177550D03*
X96250Y85050D03*
Y115050D03*
X98750Y147550D03*
Y177550D03*
X106250Y85050D03*
Y115050D03*
X108750Y52550D03*
Y147550D03*
Y177550D03*
X116250Y85050D03*
Y115050D03*
X118750Y147550D03*
Y177550D03*
X128750Y52550D03*
Y70050D03*
Y100050D03*
X138750Y70050D03*
Y100050D03*
X148750Y52550D03*
Y112550D03*
Y142550D03*
Y165050D03*
Y195050D03*
X158750Y67550D03*
Y97550D03*
Y112550D03*
Y142550D03*
Y165050D03*
Y195050D03*
X168750Y52550D03*
Y67550D03*
Y97550D03*
Y112550D03*
Y142550D03*
Y165050D03*
Y195050D03*
X178750Y67550D03*
Y97550D03*
Y112550D03*
Y142550D03*
Y165050D03*
Y195050D03*
X188750Y52550D03*
Y67550D03*
Y97550D03*
Y112550D03*
Y142550D03*
Y165050D03*
Y195050D03*
X198750Y112550D03*
Y142550D03*
Y165050D03*
Y195050D03*
X208750Y52550D03*
Y112550D03*
Y142550D03*
Y165050D03*
Y195050D03*
X211250Y77550D03*
X218750D03*
Y112550D03*
Y142550D03*
Y165050D03*
Y195050D03*
X226250Y77550D03*
X231250Y100050D03*
X241250Y12550D03*
Y100050D03*
Y137550D03*
Y147550D03*
Y157550D03*
Y192550D03*
X0Y0D02*
M02*
