G04 EasyPC Gerber Version 19.0.2 Build 3920 *
G04 #@! TF.Part,Single*
G04 #@! TF.FileFunction,Copper,L0,Top *
%FSLAX35Y35*%
%MOIN*%
G04 #@! TA.AperFunction,ComponentPad*
%ADD120O,0.06984X0.10843*%
%ADD119O,0.07000X0.12000*%
%ADD121O,0.07000X0.13000*%
G04 #@! TA.AperFunction,WasherPad*
%ADD132O,0.12024X0.15961*%
G04 #@! TA.AperFunction,SMDPad*
%ADD78R,0.05900X0.07900*%
G04 #@! TA.AperFunction,WasherPad*
%ADD96O,0.09858X0.07299*%
G04 #@! TA.AperFunction,ComponentPad*
%ADD105C,0.08874*%
G04 #@! TA.AperFunction,WasherPad*
%ADD118R,0.07900X0.05900*%
%AMT103*0 Octagon Pad at angle 0*4,1,8,-0.05098,-0.12311,0.05098,-0.12311,0.12311,-0.05098,0.12311,0.05098,0.05098,0.12311,-0.05098,0.12311,-0.12311,0.05098,-0.12311,-0.05098,-0.05098,-0.12311,0*%
%ADD103T103*%
X0Y0D02*
D02*
D78*
X168750Y147550D03*
Y160050D03*
D02*
D96*
X241250Y137550D03*
Y147550D03*
Y157550D03*
D02*
D103*
X13750Y12550D03*
Y192550D03*
X241250Y12550D03*
Y192550D03*
D02*
D105*
X13750Y145050D03*
Y155050D03*
X16250Y60050D03*
X26250D03*
X231250Y100050D03*
X241250D03*
D02*
D118*
X180000Y153800D03*
X188750Y174500D03*
Y185600D03*
D02*
D119*
X36250Y140050D03*
Y170050D03*
X46250Y140050D03*
Y170050D03*
X56250Y85050D03*
Y115050D03*
Y140050D03*
Y170050D03*
X66250Y85050D03*
Y115050D03*
Y140050D03*
Y170050D03*
X76250Y85050D03*
Y115050D03*
X86250Y85050D03*
Y115050D03*
X88750Y147550D03*
Y177550D03*
X96250Y85050D03*
Y115050D03*
X98750Y147550D03*
Y177550D03*
X106250Y85050D03*
Y115050D03*
X108750Y147550D03*
Y177550D03*
X116250Y85050D03*
Y115050D03*
X118750Y147550D03*
Y177550D03*
X148750Y112550D03*
Y142550D03*
Y165050D03*
Y195050D03*
X158750Y67550D03*
Y97550D03*
Y112550D03*
Y142550D03*
Y165050D03*
Y195050D03*
X168750Y67550D03*
Y97550D03*
Y112550D03*
Y142550D03*
Y165050D03*
Y195050D03*
X178750Y67550D03*
Y97550D03*
Y112550D03*
Y142550D03*
Y165050D03*
Y195050D03*
X188750Y67550D03*
Y97550D03*
Y112550D03*
Y142550D03*
Y165050D03*
Y195050D03*
X198750Y112550D03*
Y142550D03*
Y165050D03*
Y195050D03*
X208750Y112550D03*
Y142550D03*
Y165050D03*
Y195050D03*
X218750Y112550D03*
Y142550D03*
Y165050D03*
Y195050D03*
D02*
D120*
X11250Y115050D03*
X18750D03*
X26250Y85050D03*
Y115050D03*
X33750Y85050D03*
X41250D03*
X211250Y77550D03*
X218750D03*
X226250D03*
D02*
D121*
X128750Y70050D03*
Y100050D03*
X138750Y70050D03*
Y100050D03*
D02*
D132*
X48750Y52550D03*
X68750D03*
X88750D03*
X108750D03*
X128750D03*
X148750D03*
X168750D03*
X188750D03*
X208750D03*
X0Y0D02*
M02*
