G04 EasyPC Gerber Version 19.0.2 Build 3920 *
G04 #@! TF.Part,Single*
G04 #@! TF.FileFunction,Legend,Top *
%FSLAX35Y35*%
%MOIN*%
G04 #@! TA.AperFunction,WasherPad*
%AMT97*0 Octagon Pad at angle 0*4,1,8,-0.04892,-0.11811,0.04892,-0.11811,0.11811,-0.04892,0.11811,0.04892,0.04892,0.11811,-0.04892,0.11811,-0.11811,0.04892,-0.11811,-0.04892,-0.04892,-0.11811,0*%
%ADD97T97*%
G04 #@! TA.AperFunction,ComponentPad*
%ADD114O,0.05984X0.09843*%
%ADD111O,0.06000X0.11000*%
%ADD115O,0.06000X0.12000*%
G04 #@! TA.AperFunction,WasherPad*
%ADD131O,0.11024X0.14961*%
G04 #@! TA.AperFunction,SMDPad*
%ADD71R,0.04900X0.06900*%
%ADD116R,0.05500X0.06000*%
%ADD112R,0.05500X0.08000*%
%ADD117R,0.06300X0.06300*%
G04 #@! TD.AperFunction*
%ADD15C,0.00100*%
%ADD10C,0.00500*%
%ADD20C,0.00600*%
%ADD11C,0.02500*%
%ADD102C,0.02953*%
%ADD93C,0.03959*%
G04 #@! TA.AperFunction,WasherPad*
%ADD92O,0.08858X0.06299*%
G04 #@! TA.AperFunction,ComponentPad*
%ADD99C,0.07874*%
G04 #@! TA.AperFunction,WasherPad*
%ADD110R,0.06900X0.04900*%
G04 #@! TA.AperFunction,SMDPad*
%ADD113R,0.06000X0.05500*%
X0Y0D02*
D02*
D10*
X1677475Y1738437D02*
X1678725D01*
X1678100D02*
Y1742187D01*
X1677475Y1741563*
X1682163Y1738750D02*
X1682787Y1738437D01*
X1683413*
X1684037Y1738750*
X1684350Y1739375*
Y1741250*
X1684037Y1741875*
X1683413Y1742187*
X1682787*
X1682163Y1741875*
X1681850Y1741250*
Y1739375*
X1682163Y1738750*
X1684037Y1741875*
X1687163Y1738750D02*
X1687787Y1738437D01*
X1688413*
X1689037Y1738750*
X1689350Y1739375*
Y1741250*
X1689037Y1741875*
X1688413Y1742187*
X1687787*
X1687163Y1741875*
X1686850Y1741250*
Y1739375*
X1687163Y1738750*
X1689037Y1741875*
X1691850Y1742187D02*
Y1739375D01*
X1692163Y1738750*
X1692787Y1738437*
X1694037*
X1694663Y1738750*
X1694975Y1739375*
Y1742187*
X1696850Y1738437D02*
Y1742187D01*
X1699975*
X1699350Y1740313D02*
X1696850D01*
X1704350Y1738437D02*
X1701850D01*
X1704037Y1740625*
X1704350Y1741250*
X1704037Y1741875*
X1703413Y1742187*
X1702475*
X1701850Y1741875*
X1706850Y1738750D02*
X1707475Y1738437D01*
X1708413*
X1709037Y1738750*
X1709350Y1739375*
Y1739687*
X1709037Y1740313*
X1708413Y1740625*
X1706850*
Y1742187*
X1709350*
X1711850D02*
X1713413Y1738437D01*
X1714975Y1742187*
X1677163Y1835000D02*
Y1837500D01*
X1678413Y1836250D02*
X1675913D01*
X1681850Y1767187D02*
X1684350D01*
X1683100Y1765937D02*
Y1768437D01*
X1684350Y1757500D02*
G75*
G02X1694350Y1767500I10000D01*
G01*
G75*
G02X1704350Y1757500J-10000*
G01*
G75*
G02X1694350Y1747500I-10000*
G01*
G75*
G02X1684350Y1757500J10000*
G01*
X1686850Y1837500D02*
G75*
G02X1676850Y1847500J10000D01*
G01*
G75*
G02X1686850Y1857500I10000*
G01*
G75*
G02X1696850Y1847500J-10000*
G01*
G75*
G02X1686850Y1837500I-10000*
G01*
X1690913Y1772500D02*
X1687163Y1775000D01*
Y1772500*
X1690913Y1778437D02*
X1690600Y1779063D01*
X1689975Y1779687*
X1689037Y1780000*
X1688100*
X1687475Y1779687*
X1687163Y1779063*
Y1778437*
X1687475Y1777813*
X1688100Y1777500*
X1688725Y1777813*
X1689037Y1778437*
Y1779063*
X1688725Y1779687*
X1688100Y1780000*
X1687163Y1782500D02*
X1690913D01*
Y1785625*
X1690600Y1787813D02*
X1690913Y1788437D01*
Y1789063*
X1690600Y1789687*
X1689975Y1790000*
X1688100*
X1687475Y1789687*
X1687163Y1789063*
Y1788437*
X1687475Y1787813*
X1688100Y1787500*
X1689975*
X1690600Y1787813*
X1687475Y1789687*
X1689037Y1793437D02*
Y1794063D01*
X1688725Y1794687*
X1688100Y1795000*
X1687475Y1794687*
X1687163Y1794063*
Y1793437*
X1687475Y1792813*
X1688100Y1792500*
X1688725Y1792813*
X1689037Y1793437*
X1689350Y1792813*
X1689975Y1792500*
X1690600Y1792813*
X1690913Y1793437*
Y1794063*
X1690600Y1794687*
X1689975Y1795000*
X1689350Y1794687*
X1689037Y1794063*
X1694350Y1782500D02*
G75*
G02X1706850Y1795000I12500D01*
G01*
G75*
G02X1719350Y1782500J-12500*
G01*
Y1781000*
G75*
G02X1716850Y1775000I-8493J18*
G01*
X1696850*
G75*
G02X1694350Y1781000I5993J6018*
G01*
Y1782500*
X1693725Y1734063D02*
X1694037Y1733750D01*
X1694663Y1733437*
X1695600*
X1696225Y1733750*
X1696537Y1734063*
X1696850Y1734687*
Y1735937*
X1696537Y1736563*
X1696225Y1736875*
X1695600Y1737187*
X1694663*
X1694037Y1736875*
X1693725Y1736563*
X1691225Y1733437D02*
X1689975D01*
X1690600D02*
Y1737187D01*
X1691225Y1736563*
X1686537Y1733750D02*
X1685913Y1733437D01*
X1685287*
X1684663Y1733750*
X1684350Y1734375*
Y1736250*
X1684663Y1736875*
X1685287Y1737187*
X1685913*
X1686537Y1736875*
X1686850Y1736250*
Y1734375*
X1686537Y1733750*
X1684663Y1736875*
X1680287Y1733437D02*
Y1737187D01*
X1681850Y1734687*
X1679350*
X1693725Y1789063D02*
X1694037Y1788750D01*
X1694663Y1788437*
X1695600*
X1696225Y1788750*
X1696537Y1789063*
X1696850Y1789687*
Y1790937*
X1696537Y1791563*
X1696225Y1791875*
X1695600Y1792187*
X1694663*
X1694037Y1791875*
X1693725Y1791563*
X1691225Y1788437D02*
X1689975D01*
X1690600D02*
Y1792187D01*
X1691225Y1791563*
X1686537Y1788750D02*
X1685913Y1788437D01*
X1685287*
X1684663Y1788750*
X1684350Y1789375*
Y1791250*
X1684663Y1791875*
X1685287Y1792187*
X1685913*
X1686537Y1791875*
X1686850Y1791250*
Y1789375*
X1686537Y1788750*
X1684663Y1791875*
X1680287Y1788437D02*
Y1792187D01*
X1681850Y1789687*
X1679350*
X1697787Y1864375D02*
Y1863125D01*
Y1863750D02*
X1701537D01*
X1700913Y1864375*
X1698100Y1859687D02*
X1697787Y1859063D01*
Y1858437*
X1698100Y1857813*
X1698725Y1857500*
X1700600*
X1701225Y1857813*
X1701537Y1858437*
Y1859063*
X1701225Y1859687*
X1700600Y1860000*
X1698725*
X1698100Y1859687*
X1701225Y1857813*
X1698100Y1854687D02*
X1697787Y1854063D01*
Y1853437*
X1698100Y1852813*
X1698725Y1852500*
X1700600*
X1701225Y1852813*
X1701537Y1853437*
Y1854063*
X1701225Y1854687*
X1700600Y1855000*
X1698725*
X1698100Y1854687*
X1701225Y1852813*
X1701537Y1850000D02*
X1698725D01*
X1698100Y1849687*
X1697787Y1849063*
Y1847813*
X1698100Y1847187*
X1698725Y1846875*
X1701537*
X1697787Y1845000D02*
X1701537D01*
Y1841875*
X1699663Y1842500D02*
Y1845000D01*
X1697787Y1837500D02*
Y1840000D01*
X1699975Y1837813*
X1700600Y1837500*
X1701225Y1837813*
X1701537Y1838437*
Y1839375*
X1701225Y1840000*
X1698100Y1835000D02*
X1697787Y1834375D01*
Y1833437*
X1698100Y1832813*
X1698725Y1832500*
X1699037*
X1699663Y1832813*
X1699975Y1833437*
Y1835000*
X1701537*
Y1832500*
Y1830000D02*
X1697787Y1828437D01*
X1701537Y1826875*
X1700287Y1842500D02*
X1704037D01*
Y1844687*
X1703725Y1845313*
X1703100Y1845625*
X1702475Y1845313*
X1702163Y1844687*
Y1842500*
Y1844687D02*
X1700287Y1845625D01*
Y1848125D02*
Y1849375D01*
Y1848750D02*
X1704037D01*
X1703413Y1848125*
X1700600Y1852813D02*
X1700287Y1853437D01*
Y1854063*
X1700600Y1854687*
X1701225Y1855000*
X1703100*
X1703725Y1854687*
X1704037Y1854063*
Y1853437*
X1703725Y1852813*
X1703100Y1852500*
X1701225*
X1700600Y1852813*
X1703725Y1854687*
X1700287Y1859063D02*
X1704037D01*
X1701537Y1857500*
Y1860000*
X1704350Y1812500D02*
G75*
G02X1691850Y1800000I-12500D01*
G01*
G75*
G02X1679350Y1812500J12500*
G01*
Y1814000*
G75*
G02X1681850Y1820000I8493J-18*
G01*
X1701850*
G75*
G02X1704350Y1814000I-5993J-6018*
G01*
Y1812500*
X1701225Y1874063D02*
X1701537Y1873750D01*
X1702163Y1873437*
X1703100*
X1703725Y1873750*
X1704037Y1874063*
X1704350Y1874687*
Y1875937*
X1704037Y1876563*
X1703725Y1876875*
X1703100Y1877187*
X1702163*
X1701537Y1876875*
X1701225Y1876563*
X1698725Y1873437D02*
X1697475D01*
X1698100D02*
Y1877187D01*
X1698725Y1876563*
X1694037Y1873750D02*
X1693413Y1873437D01*
X1692787*
X1692163Y1873750*
X1691850Y1874375*
Y1876250*
X1692163Y1876875*
X1692787Y1877187*
X1693413*
X1694037Y1876875*
X1694350Y1876250*
Y1874375*
X1694037Y1873750*
X1692163Y1876875*
X1687787Y1873437D02*
Y1877187D01*
X1689350Y1874687*
X1686850*
X1705350Y1863500D02*
X1683350D01*
Y1871500*
X1705350*
Y1863500*
X1705600Y1890937D02*
Y1894687D01*
X1708725*
X1708100Y1892813D02*
X1705600D01*
Y1890937D02*
X1708725D01*
X1710600Y1894687D02*
Y1890937D01*
X1713725*
X1715600D02*
Y1894687D01*
X1718725*
X1718100Y1892813D02*
X1715600D01*
Y1890937D02*
X1718725D01*
X1723725Y1891563D02*
X1723413Y1891250D01*
X1722787Y1890937*
X1721850*
X1721225Y1891250*
X1720913Y1891563*
X1720600Y1892187*
Y1893437*
X1720913Y1894063*
X1721225Y1894375*
X1721850Y1894687*
X1722787*
X1723413Y1894375*
X1723725Y1894063*
X1727163Y1890937D02*
Y1894687D01*
X1725600D02*
X1728725D01*
X1730600Y1890937D02*
Y1894687D01*
X1732787*
X1733413Y1894375*
X1733725Y1893750*
X1733413Y1893125*
X1732787Y1892813*
X1730600*
X1732787D02*
X1733725Y1890937D01*
X1735600Y1892187D02*
Y1893437D01*
X1735913Y1894063*
X1736225Y1894375*
X1736850Y1894687*
X1737475*
X1738100Y1894375*
X1738413Y1894063*
X1738725Y1893437*
Y1892187*
X1738413Y1891563*
X1738100Y1891250*
X1737475Y1890937*
X1736850*
X1736225Y1891250*
X1735913Y1891563*
X1735600Y1892187*
X1740600Y1890937D02*
Y1894687D01*
X1742163Y1892813*
X1743725Y1894687*
Y1890937*
X1745600D02*
Y1894687D01*
X1748725*
X1748100Y1892813D02*
X1745600D01*
Y1890937D02*
X1748725D01*
X1753725Y1891563D02*
X1753413Y1891250D01*
X1752787Y1890937*
X1751850*
X1751225Y1891250*
X1750913Y1891563*
X1750600Y1892187*
Y1893437*
X1750913Y1894063*
X1751225Y1894375*
X1751850Y1894687*
X1752787*
X1753413Y1894375*
X1753725Y1894063*
X1760600Y1890937D02*
Y1894687D01*
X1763725*
X1763100Y1892813D02*
X1760600D01*
Y1890937D02*
X1763725D01*
X1765600D02*
Y1894687D01*
X1768725Y1890937*
Y1894687*
X1772787Y1892500D02*
X1773725D01*
Y1892187*
X1773413Y1891563*
X1773100Y1891250*
X1772475Y1890937*
X1771850*
X1771225Y1891250*
X1770913Y1891563*
X1770600Y1892187*
Y1893437*
X1770913Y1894063*
X1771225Y1894375*
X1771850Y1894687*
X1772475*
X1773100Y1894375*
X1773413Y1894063*
X1773725Y1893437*
X1776537Y1890937D02*
X1777787D01*
X1777163D02*
Y1894687D01*
X1776537D02*
X1777787D01*
X1780600Y1890937D02*
Y1894687D01*
X1783725Y1890937*
Y1894687*
X1785600Y1890937D02*
Y1894687D01*
X1788725*
X1788100Y1892813D02*
X1785600D01*
Y1890937D02*
X1788725D01*
X1790600D02*
Y1894687D01*
X1793725*
X1793100Y1892813D02*
X1790600D01*
Y1890937D02*
X1793725D01*
X1795600D02*
Y1894687D01*
X1797787*
X1798413Y1894375*
X1798725Y1893750*
X1798413Y1893125*
X1797787Y1892813*
X1795600*
X1797787D02*
X1798725Y1890937D01*
X1801537D02*
X1802787D01*
X1802163D02*
Y1894687D01*
X1801537D02*
X1802787D01*
X1805600Y1890937D02*
Y1894687D01*
X1808725Y1890937*
Y1894687*
X1812787Y1892500D02*
X1813725D01*
Y1892187*
X1813413Y1891563*
X1813100Y1891250*
X1812475Y1890937*
X1811850*
X1811225Y1891250*
X1810913Y1891563*
X1810600Y1892187*
Y1893437*
X1810913Y1894063*
X1811225Y1894375*
X1811850Y1894687*
X1812475*
X1813100Y1894375*
X1813413Y1894063*
X1813725Y1893437*
X1707850Y1738500D02*
X1685850D01*
Y1746500*
X1707850*
Y1738500*
X1710287Y1822500D02*
X1714037Y1820000D01*
Y1822500*
X1712163Y1816563D02*
Y1815937D01*
X1712475Y1815313*
X1713100Y1815000*
X1713725Y1815313*
X1714037Y1815937*
Y1816563*
X1713725Y1817187*
X1713100Y1817500*
X1712475Y1817187*
X1712163Y1816563*
X1711850Y1817187*
X1711225Y1817500*
X1710600Y1817187*
X1710287Y1816563*
Y1815937*
X1710600Y1815313*
X1711225Y1815000*
X1711850Y1815313*
X1712163Y1815937*
X1714037Y1812500D02*
X1710287D01*
Y1809375*
X1710600Y1807187D02*
X1710287Y1806563D01*
Y1805937*
X1710600Y1805313*
X1711225Y1805000*
X1713100*
X1713725Y1805313*
X1714037Y1805937*
Y1806563*
X1713725Y1807187*
X1713100Y1807500*
X1711225*
X1710600Y1807187*
X1713725Y1805313*
X1712163Y1801563D02*
Y1800937D01*
X1712475Y1800313*
X1713100Y1800000*
X1713725Y1800313*
X1714037Y1800937*
Y1801563*
X1713725Y1802187*
X1713100Y1802500*
X1712475Y1802187*
X1712163Y1801563*
X1711850Y1802187*
X1711225Y1802500*
X1710600Y1802187*
X1710287Y1801563*
Y1800937*
X1710600Y1800313*
X1711225Y1800000*
X1711850Y1800313*
X1712163Y1800937*
X1713413Y1850937D02*
Y1854687D01*
X1711850D02*
X1714975D01*
X1716850D02*
Y1850937D01*
X1719975*
X1721850Y1852187D02*
Y1853437D01*
X1722163Y1854063*
X1722475Y1854375*
X1723100Y1854687*
X1723725*
X1724350Y1854375*
X1724663Y1854063*
X1724975Y1853437*
Y1852187*
X1724663Y1851563*
X1724350Y1851250*
X1723725Y1850937*
X1723100*
X1722475Y1851250*
X1722163Y1851563*
X1721850Y1852187*
X1727787Y1852813D02*
X1728413D01*
X1729037Y1853125*
X1729350Y1853750*
X1729037Y1854375*
X1728413Y1854687*
X1727787*
X1727163Y1854375*
X1726850Y1853750*
X1727163Y1853125*
X1727787Y1852813*
X1727163Y1852500*
X1726850Y1851875*
X1727163Y1851250*
X1727787Y1850937*
X1728413*
X1729037Y1851250*
X1729350Y1851875*
X1729037Y1852500*
X1728413Y1852813*
X1734350Y1850937D02*
X1731850D01*
X1734037Y1853125*
X1734350Y1853750*
X1734037Y1854375*
X1733413Y1854687*
X1732475*
X1731850Y1854375*
X1712850Y1793500D02*
X1690850D01*
Y1801500*
X1712850*
Y1793500*
X1714350Y1705937D02*
X1716850D01*
X1715600Y1704687D02*
Y1707187D01*
X1719975Y1704687D02*
X1721225D01*
X1720600D02*
Y1708437D01*
X1719975Y1707813*
X1726850Y1704687D02*
X1724350D01*
X1726537Y1706875*
X1726850Y1707500*
X1726537Y1708125*
X1725913Y1708437*
X1724975*
X1724350Y1708125*
X1714350Y1715937D02*
X1711850D01*
X1713100Y1714687D02*
Y1717187D01*
X1708725Y1714687D02*
X1707475D01*
X1708100D02*
Y1718437D01*
X1708725Y1717813*
X1701850Y1714687D02*
X1704350D01*
X1702163Y1716875*
X1701850Y1717500*
X1702163Y1718125*
X1702787Y1718437*
X1703725*
X1704350Y1718125*
X1714350Y1767187D02*
X1716850D01*
X1715600Y1765937D02*
Y1768437D01*
X1719975Y1765937D02*
X1721225D01*
X1720600D02*
Y1769687D01*
X1719975Y1769063*
X1726850Y1765937D02*
X1724350D01*
X1726537Y1768125*
X1726850Y1768750*
X1726537Y1769375*
X1725913Y1769687*
X1724975*
X1724350Y1769375*
X1718413Y1774375D02*
Y1773125D01*
Y1773750D02*
X1714663D01*
X1715287Y1774375*
X1718413Y1767500D02*
Y1770000D01*
X1716225Y1767813*
X1715600Y1767500*
X1714975Y1767813*
X1714663Y1768437*
Y1769375*
X1714975Y1770000*
X1714663Y1765000D02*
Y1761875D01*
X1718413Y1765000*
Y1761875*
X1719350Y1806563D02*
Y1802813D01*
Y1804687D02*
X1718413D01*
X1716225Y1802813*
X1718413Y1804687D02*
X1716225Y1806563D01*
X1720850Y1772500D02*
X1742850D01*
Y1762500*
X1720850*
Y1772500*
X1724350Y1888437D02*
Y1892187D01*
X1722163*
X1721537Y1891875*
X1721225Y1891250*
X1721537Y1890625*
X1722163Y1890313*
X1724350*
X1722163D02*
X1721225Y1888437D01*
X1718725D02*
X1717475D01*
X1718100D02*
Y1892187D01*
X1718725Y1891563*
X1714037Y1888750D02*
X1713413Y1888437D01*
X1712787*
X1712163Y1888750*
X1711850Y1889375*
Y1891250*
X1712163Y1891875*
X1712787Y1892187*
X1713413*
X1714037Y1891875*
X1714350Y1891250*
Y1889375*
X1714037Y1888750*
X1712163Y1891875*
X1709037Y1888750D02*
X1708413Y1888437D01*
X1707787*
X1707163Y1888750*
X1706850Y1889375*
X1707163Y1890000*
X1707787Y1890313*
X1708413*
X1707787D02*
X1707163Y1890625D01*
X1706850Y1891250*
X1707163Y1891875*
X1707787Y1892187*
X1708413*
X1709037Y1891875*
X1726850Y1829063D02*
Y1825313D01*
X1729037*
X1729663Y1825625*
X1729975Y1826250*
X1729663Y1826875*
X1729037Y1827187*
X1726850*
X1729037D02*
X1729975Y1829063D01*
X1732475D02*
X1733725D01*
X1733100D02*
Y1825313D01*
X1732475Y1825937*
X1737163Y1828750D02*
X1737787Y1829063D01*
X1738413*
X1739037Y1828750*
X1739350Y1828125*
Y1826250*
X1739037Y1825625*
X1738413Y1825313*
X1737787*
X1737163Y1825625*
X1736850Y1826250*
Y1828125*
X1737163Y1828750*
X1739037Y1825625*
X1743413Y1829063D02*
Y1825313D01*
X1741850Y1827813*
X1744350*
X1734350Y1705937D02*
X1736850D01*
X1739975Y1704687D02*
X1741225D01*
X1740600D02*
Y1708437D01*
X1739975Y1707813*
X1746850Y1704687D02*
X1744350D01*
X1746537Y1706875*
X1746850Y1707500*
X1746537Y1708125*
X1745913Y1708437*
X1744975*
X1744350Y1708125*
X1734350Y1715937D02*
X1731850D01*
X1728725Y1714687D02*
X1727475D01*
X1728100D02*
Y1718437D01*
X1728725Y1717813*
X1721850Y1714687D02*
X1724350D01*
X1722163Y1716875*
X1721850Y1717500*
X1722163Y1718125*
X1722787Y1718437*
X1723725*
X1724350Y1718125*
X1734350Y1767187D02*
X1736850D01*
X1739975Y1765937D02*
X1741225D01*
X1740600D02*
Y1769687D01*
X1739975Y1769063*
X1746850Y1765937D02*
X1744350D01*
X1746537Y1768125*
X1746850Y1768750*
X1746537Y1769375*
X1745913Y1769687*
X1744975*
X1744350Y1769375*
X1741850Y1847500D02*
X1706850D01*
Y1850000*
X1709350Y1852500*
X1706850Y1855000*
Y1857500*
X1741850*
Y1847500*
X1742850Y1792500D02*
X1720850D01*
Y1802500*
X1742850*
Y1792500*
X1744350Y1769063D02*
Y1765313D01*
Y1767187D02*
X1745287D01*
X1747475Y1765313*
X1745287Y1767187D02*
X1747475Y1769063D01*
X1745287Y1842500D02*
X1749037D01*
Y1844687*
X1748725Y1845313*
X1748100Y1845625*
X1747475Y1845313*
X1747163Y1844687*
Y1842500*
Y1844687D02*
X1745287Y1845625D01*
Y1849063D02*
X1749037D01*
X1746537Y1847500*
Y1850000*
X1745287Y1852500D02*
X1749037Y1855000D01*
Y1852500*
X1745600Y1857813D02*
X1745287Y1858437D01*
Y1859063*
X1745600Y1859687*
X1746225Y1860000*
X1746850Y1859687*
X1747163Y1859063*
Y1858437*
Y1859063D02*
X1747475Y1859687D01*
X1748100Y1860000*
X1748725Y1859687*
X1749037Y1859063*
Y1858437*
X1748725Y1857813*
X1748100Y1795937D02*
Y1799687D01*
X1749663Y1797813*
X1751225Y1799687*
Y1795937*
X1756225Y1796563D02*
X1755913Y1796250D01*
X1755287Y1795937*
X1754350*
X1753725Y1796250*
X1753413Y1796563*
X1753100Y1797187*
Y1798437*
X1753413Y1799063*
X1753725Y1799375*
X1754350Y1799687*
X1755287*
X1755913Y1799375*
X1756225Y1799063*
X1758725Y1795937D02*
X1759975D01*
X1759350D02*
Y1799687D01*
X1758725Y1799063*
X1764663Y1795937D02*
Y1799687D01*
X1763100Y1797187*
X1765600*
X1769037Y1797813D02*
X1769663D01*
X1770287Y1798125*
X1770600Y1798750*
X1770287Y1799375*
X1769663Y1799687*
X1769037*
X1768413Y1799375*
X1768100Y1798750*
X1768413Y1798125*
X1769037Y1797813*
X1768413Y1797500*
X1768100Y1796875*
X1768413Y1796250*
X1769037Y1795937*
X1769663*
X1770287Y1796250*
X1770600Y1796875*
X1770287Y1797500*
X1769663Y1797813*
X1774037D02*
X1774663D01*
X1775287Y1798125*
X1775600Y1798750*
X1775287Y1799375*
X1774663Y1799687*
X1774037*
X1773413Y1799375*
X1773100Y1798750*
X1773413Y1798125*
X1774037Y1797813*
X1773413Y1797500*
X1773100Y1796875*
X1773413Y1796250*
X1774037Y1795937*
X1774663*
X1775287Y1796250*
X1775600Y1796875*
X1775287Y1797500*
X1774663Y1797813*
X1748413Y1801875D02*
Y1800625D01*
Y1801250D02*
X1744663D01*
X1745287Y1801875*
X1748413Y1795000D02*
Y1797500D01*
X1746225Y1795313*
X1745600Y1795000*
X1744975Y1795313*
X1744663Y1795937*
Y1796875*
X1744975Y1797500*
X1744663Y1792500D02*
Y1789375D01*
X1748413Y1792500*
Y1789375*
X1748725Y1890937D02*
X1749037Y1891250D01*
X1749663Y1891563*
X1750600*
X1751225Y1891250*
X1751537Y1890937*
X1751850Y1890313*
Y1889063*
X1751537Y1888437*
X1751225Y1888125*
X1750600Y1887813*
X1749663*
X1749037Y1888125*
X1748725Y1888437*
X1746225Y1891563D02*
X1744975D01*
X1745600D02*
Y1887813D01*
X1746225Y1888437*
X1741537Y1891250D02*
X1740913Y1891563D01*
X1740287*
X1739663Y1891250*
X1739350Y1890625*
Y1888750*
X1739663Y1888125*
X1740287Y1887813*
X1740913*
X1741537Y1888125*
X1741850Y1888750*
Y1890625*
X1741537Y1891250*
X1739663Y1888125*
X1736537Y1891250D02*
X1735913Y1891563D01*
X1735287*
X1734663Y1891250*
X1734350Y1890625*
X1734663Y1890000*
X1735287Y1889687*
X1735913*
X1735287D02*
X1734663Y1889375D01*
X1734350Y1888750*
X1734663Y1888125*
X1735287Y1887813*
X1735913*
X1736537Y1888125*
X1752350Y1879000D02*
X1736350D01*
Y1886000*
X1752350*
Y1879000*
X1757787Y1704687D02*
X1759037D01*
X1758413D02*
Y1708437D01*
X1757787D02*
X1759037D01*
X1761850Y1704687D02*
Y1708437D01*
X1764975Y1704687*
Y1708437*
X1755913Y1714687D02*
X1754663D01*
X1755287D02*
Y1718437D01*
X1755913D02*
X1754663D01*
X1751850Y1714687D02*
Y1718437D01*
X1748725Y1714687*
Y1718437*
X1757787Y1765937D02*
X1759037D01*
X1758413D02*
Y1769687D01*
X1757787D02*
X1759037D01*
X1761850Y1765937D02*
Y1769687D01*
X1764975Y1765937*
Y1769687*
X1755287Y1766875D02*
X1755600Y1767187D01*
X1755913Y1767813*
Y1768750*
X1755600Y1769375*
X1755287Y1769687*
X1754663Y1770000*
X1753413*
X1752787Y1769687*
X1752475Y1769375*
X1752163Y1768750*
Y1767813*
X1752475Y1767187*
X1752787Y1766875*
X1755913Y1764375D02*
Y1763125D01*
Y1763750D02*
X1752163D01*
X1752787Y1764375*
X1755600Y1759687D02*
X1755913Y1759063D01*
Y1758437*
X1755600Y1757813*
X1754975Y1757500*
X1753100*
X1752475Y1757813*
X1752163Y1758437*
Y1759063*
X1752475Y1759687*
X1753100Y1760000*
X1754975*
X1755600Y1759687*
X1752475Y1757813*
X1755600Y1754687D02*
X1755913Y1754063D01*
Y1753437*
X1755600Y1752813*
X1754975Y1752500*
X1754350Y1752813*
X1754037Y1753437*
Y1754063*
Y1753437D02*
X1753725Y1752813D01*
X1753100Y1752500*
X1752475Y1752813*
X1752163Y1753437*
Y1754063*
X1752475Y1754687*
X1758350Y1754500D02*
Y1770500D01*
X1765350*
Y1754500*
X1758350*
X1764350Y1830937D02*
Y1834687D01*
Y1832813D02*
X1763413D01*
X1761225Y1834687*
X1763413Y1832813D02*
X1761225Y1830937D01*
X1765913Y1858437D02*
Y1862187D01*
X1764350D02*
X1767475D01*
X1769350D02*
Y1858437D01*
X1772475*
X1777475Y1859063D02*
X1777163Y1858750D01*
X1776537Y1858437*
X1775600*
X1774975Y1858750*
X1774663Y1859063*
X1774350Y1859687*
Y1860937*
X1774663Y1861563*
X1774975Y1861875*
X1775600Y1862187*
X1776537*
X1777163Y1861875*
X1777475Y1861563*
X1779350Y1858750D02*
X1779975Y1858437D01*
X1780913*
X1781537Y1858750*
X1781850Y1859375*
Y1859687*
X1781537Y1860313*
X1780913Y1860625*
X1779350*
Y1862187*
X1781850*
X1784350Y1858750D02*
X1784975Y1858437D01*
X1785913*
X1786537Y1858750*
X1786850Y1859375*
Y1859687*
X1786537Y1860313*
X1785913Y1860625*
X1784350*
Y1862187*
X1786850*
X1789350Y1858750D02*
X1789975Y1858437D01*
X1790913*
X1791537Y1858750*
X1791850Y1859375*
Y1859687*
X1791537Y1860313*
X1790913Y1860625*
X1789350*
Y1862187*
X1791850*
X1772475Y1833437D02*
X1773725D01*
X1773100D02*
Y1837187D01*
X1772475Y1836563*
X1776850Y1833437D02*
Y1837187D01*
X1779975Y1833437*
Y1837187*
X1783413Y1833437D02*
Y1837187D01*
X1781850Y1834687*
X1784350*
X1787475Y1833437D02*
X1788725D01*
X1788100D02*
Y1837187D01*
X1787475Y1836563*
X1793413Y1833437D02*
Y1837187D01*
X1791850Y1834687*
X1794350*
X1797787Y1835313D02*
X1798413D01*
X1799037Y1835625*
X1799350Y1836250*
X1799037Y1836875*
X1798413Y1837187*
X1797787*
X1797163Y1836875*
X1796850Y1836250*
X1797163Y1835625*
X1797787Y1835313*
X1797163Y1835000*
X1796850Y1834375*
X1797163Y1833750*
X1797787Y1833437*
X1798413*
X1799037Y1833750*
X1799350Y1834375*
X1799037Y1835000*
X1798413Y1835313*
X1771850Y1855937D02*
Y1859687D01*
X1769663*
X1769037Y1859375*
X1768725Y1858750*
X1769037Y1858125*
X1769663Y1857813*
X1771850*
X1769663D02*
X1768725Y1855937D01*
X1766225D02*
X1764975D01*
X1765600D02*
Y1859687D01*
X1766225Y1859063*
X1761537Y1856250D02*
X1760913Y1855937D01*
X1760287*
X1759663Y1856250*
X1759350Y1856875*
Y1858750*
X1759663Y1859375*
X1760287Y1859687*
X1760913*
X1761537Y1859375*
X1761850Y1858750*
Y1856875*
X1761537Y1856250*
X1759663Y1859375*
X1756537Y1856250D02*
X1755913Y1855937D01*
X1755287*
X1754663Y1856250*
X1754350Y1856875*
X1754663Y1857500*
X1755287Y1857813*
X1755913*
X1755287D02*
X1754663Y1858125D01*
X1754350Y1858750*
X1754663Y1859375*
X1755287Y1859687*
X1755913*
X1756537Y1859375*
X1781537Y1706250D02*
X1782475D01*
Y1705937*
X1782163Y1705313*
X1781850Y1705000*
X1781225Y1704687*
X1780600*
X1779975Y1705000*
X1779663Y1705313*
X1779350Y1705937*
Y1707187*
X1779663Y1707813*
X1779975Y1708125*
X1780600Y1708437*
X1781225*
X1781850Y1708125*
X1782163Y1707813*
X1782475Y1707187*
X1777163Y1716250D02*
X1776225D01*
Y1715937*
X1776537Y1715313*
X1776850Y1715000*
X1777475Y1714687*
X1778100*
X1778725Y1715000*
X1779037Y1715313*
X1779350Y1715937*
Y1717187*
X1779037Y1717813*
X1778725Y1718125*
X1778100Y1718437*
X1777475*
X1776850Y1718125*
X1776537Y1717813*
X1776225Y1717187*
X1781537Y1767500D02*
X1782475D01*
Y1767187*
X1782163Y1766563*
X1781850Y1766250*
X1781225Y1765937*
X1780600*
X1779975Y1766250*
X1779663Y1766563*
X1779350Y1767187*
Y1768437*
X1779663Y1769063*
X1779975Y1769375*
X1780600Y1769687*
X1781225*
X1781850Y1769375*
X1782163Y1769063*
X1782475Y1768437*
X1783413Y1855625D02*
X1783100Y1855313D01*
X1782787Y1854687*
Y1853750*
X1783100Y1853125*
X1783413Y1852813*
X1784037Y1852500*
X1785287*
X1785913Y1852813*
X1786225Y1853125*
X1786537Y1853750*
Y1854687*
X1786225Y1855313*
X1785913Y1855625*
X1782787Y1858125D02*
Y1859375D01*
Y1858750D02*
X1786537D01*
X1785913Y1858125*
X1783100Y1862813D02*
X1782787Y1863437D01*
Y1864063*
X1783100Y1864687*
X1783725Y1865000*
X1785600*
X1786225Y1864687*
X1786537Y1864063*
Y1863437*
X1786225Y1862813*
X1785600Y1862500*
X1783725*
X1783100Y1862813*
X1786225Y1864687*
X1782787Y1869063D02*
X1786537D01*
X1784037Y1867500*
Y1870000*
X1782850Y1820000D02*
X1760850D01*
Y1830000*
X1782850*
Y1820000*
X1784350Y1893437D02*
Y1897187D01*
X1782163*
X1781537Y1896875*
X1781225Y1896250*
X1781537Y1895625*
X1782163Y1895313*
X1784350*
X1782163D02*
X1781225Y1893437D01*
X1776850D02*
X1779350D01*
X1777163Y1895625*
X1776850Y1896250*
X1777163Y1896875*
X1777787Y1897187*
X1778725*
X1779350Y1896875*
X1774037Y1893750D02*
X1773413Y1893437D01*
X1772787*
X1772163Y1893750*
X1771850Y1894375*
Y1896250*
X1772163Y1896875*
X1772787Y1897187*
X1773413*
X1774037Y1896875*
X1774350Y1896250*
Y1894375*
X1774037Y1893750*
X1772163Y1896875*
X1769037Y1893750D02*
X1768413Y1893437D01*
X1767787*
X1767163Y1893750*
X1766850Y1894375*
X1767163Y1895000*
X1767787Y1895313*
X1768413*
X1767787D02*
X1767163Y1895625D01*
X1766850Y1896250*
X1767163Y1896875*
X1767787Y1897187*
X1768413*
X1769037Y1896875*
X1786850Y1758437D02*
Y1762187D01*
X1784663*
X1784037Y1761875*
X1783725Y1761250*
X1784037Y1760625*
X1784663Y1760313*
X1786850*
X1784663D02*
X1783725Y1758437D01*
X1781225D02*
X1779975D01*
X1780600D02*
Y1762187D01*
X1781225Y1761563*
X1776537Y1758750D02*
X1775913Y1758437D01*
X1775287*
X1774663Y1758750*
X1774350Y1759375*
Y1761250*
X1774663Y1761875*
X1775287Y1762187*
X1775913*
X1776537Y1761875*
X1776850Y1761250*
Y1759375*
X1776537Y1758750*
X1774663Y1761875*
X1770287Y1758437D02*
Y1762187D01*
X1771850Y1759687*
X1769350*
X1791850Y1753437D02*
Y1757187D01*
X1794975*
X1794350Y1755313D02*
X1791850D01*
Y1753437D02*
X1794975D01*
X1791850Y1792500D02*
X1726850D01*
Y1795000*
X1729350Y1797500*
X1726850Y1800000*
Y1802500*
X1791850*
Y1792500*
X1794350Y1855000D02*
X1759350D01*
Y1857500*
X1761850Y1860000*
X1759350Y1862500*
Y1865000*
X1794350*
Y1855000*
X1795850Y1871000D02*
Y1849000D01*
X1787850*
Y1871000*
X1795850*
X1796850Y1787500D02*
X1814350D01*
Y1785000*
X1811850Y1782500*
X1814350Y1780000*
Y1777500*
X1796850*
Y1787500*
X1800287Y1782813D02*
X1800913D01*
X1801537Y1783125*
X1801850Y1783750*
X1801537Y1784375*
X1800913Y1784687*
X1800287*
X1799663Y1784375*
X1799350Y1783750*
X1799663Y1783125*
X1800287Y1782813*
X1799663Y1782500*
X1799350Y1781875*
X1799663Y1781250*
X1800287Y1780937*
X1800913*
X1801537Y1781250*
X1801850Y1781875*
X1801537Y1782500*
X1800913Y1782813*
X1804975Y1780937D02*
X1806225D01*
X1805600D02*
Y1784687D01*
X1804975Y1784063*
X1809350Y1780937D02*
X1811850Y1784687D01*
X1809350*
X1800600Y1704687D02*
Y1708437D01*
X1803725*
X1803100Y1706563D02*
X1800600D01*
Y1704687D02*
X1803725D01*
X1800600Y1714687D02*
Y1718437D01*
X1797475*
X1798100Y1716563D02*
X1800600D01*
Y1714687D02*
X1797475D01*
X1805850Y1871000D02*
Y1849000D01*
X1797850*
Y1871000*
X1805850*
X1808413Y1855625D02*
X1808100Y1855313D01*
X1807787Y1854687*
Y1853750*
X1808100Y1853125*
X1808413Y1852813*
X1809037Y1852500*
X1810287*
X1810913Y1852813*
X1811225Y1853125*
X1811537Y1853750*
Y1854687*
X1811225Y1855313*
X1810913Y1855625*
X1807787Y1858125D02*
Y1859375D01*
Y1858750D02*
X1811537D01*
X1810913Y1858125*
X1808100Y1862813D02*
X1807787Y1863437D01*
Y1864063*
X1808100Y1864687*
X1808725Y1865000*
X1810600*
X1811225Y1864687*
X1811537Y1864063*
Y1863437*
X1811225Y1862813*
X1810600Y1862500*
X1808725*
X1808100Y1862813*
X1811225Y1864687*
X1807787Y1869063D02*
X1811537D01*
X1809037Y1867500*
Y1870000*
X1808350Y1784000D02*
X1830350D01*
Y1776000*
X1808350*
Y1784000*
X1814975Y1754063D02*
X1814663Y1753750D01*
X1814037Y1753437*
X1813100*
X1812475Y1753750*
X1812163Y1754063*
X1811850Y1754687*
Y1755937*
X1812163Y1756563*
X1812475Y1756875*
X1813100Y1757187*
X1814037*
X1814663Y1756875*
X1814975Y1756563*
X1809663Y1860000D02*
X1812475D01*
X1813100Y1860313*
X1813413Y1860937*
Y1862187*
X1813100Y1862813*
X1812475Y1863125*
X1809663*
X1813413Y1867500D02*
Y1865000D01*
X1811225Y1867187*
X1810600Y1867500*
X1809975Y1867187*
X1809663Y1866563*
Y1865625*
X1809975Y1865000*
X1813413Y1876563D02*
X1809663D01*
X1812163Y1875000*
Y1877500*
X1813100Y1880313D02*
X1813413Y1880937D01*
Y1881563*
X1813100Y1882187*
X1812475Y1882500*
X1810600*
X1809975Y1882187*
X1809663Y1881563*
Y1880937*
X1809975Y1880313*
X1810600Y1880000*
X1812475*
X1813100Y1880313*
X1809975Y1882187*
X1813413Y1886563D02*
X1809663D01*
X1812163Y1885000*
Y1887500*
X1812475Y1890000D02*
X1811850Y1890313D01*
X1811537Y1890937*
Y1891563*
X1811850Y1892187*
X1812475Y1892500*
X1813100Y1892187*
X1813413Y1891563*
Y1890937*
X1813100Y1890313*
X1812475Y1890000*
X1811537*
X1810600Y1890313*
X1809975Y1890937*
X1809663Y1891563*
X1823725Y1705313D02*
X1823413Y1705000D01*
X1822787Y1704687*
X1821850*
X1821225Y1705000*
X1820913Y1705313*
X1820600Y1705937*
Y1707187*
X1820913Y1707813*
X1821225Y1708125*
X1821850Y1708437*
X1822787*
X1823413Y1708125*
X1823725Y1707813*
X1817475Y1715313D02*
X1817787Y1715000D01*
X1818413Y1714687*
X1819350*
X1819975Y1715000*
X1820287Y1715313*
X1820600Y1715937*
Y1717187*
X1820287Y1717813*
X1819975Y1718125*
X1819350Y1718437*
X1818413*
X1817787Y1718125*
X1817475Y1717813*
X1824975Y1847187D02*
X1826225D01*
X1825600D02*
Y1850937D01*
X1824975Y1850313*
X1829663Y1847500D02*
X1830287Y1847187D01*
X1830913*
X1831537Y1847500*
X1831850Y1848125*
Y1850000*
X1831537Y1850625*
X1830913Y1850937*
X1830287*
X1829663Y1850625*
X1829350Y1850000*
Y1848125*
X1829663Y1847500*
X1831537Y1850625*
X1834663Y1847500D02*
X1835287Y1847187D01*
X1835913*
X1836537Y1847500*
X1836850Y1848125*
Y1850000*
X1836537Y1850625*
X1835913Y1850937*
X1835287*
X1834663Y1850625*
X1834350Y1850000*
Y1848125*
X1834663Y1847500*
X1836537Y1850625*
X1826850Y1785937D02*
Y1789687D01*
X1824663*
X1824037Y1789375*
X1823725Y1788750*
X1824037Y1788125*
X1824663Y1787813*
X1826850*
X1824663D02*
X1823725Y1785937D01*
X1819350D02*
X1821850D01*
X1819663Y1788125*
X1819350Y1788750*
X1819663Y1789375*
X1820287Y1789687*
X1821225*
X1821850Y1789375*
X1814350Y1785937D02*
X1816850D01*
X1814663Y1788125*
X1814350Y1788750*
X1814663Y1789375*
X1815287Y1789687*
X1816225*
X1816850Y1789375*
X1811537Y1786250D02*
X1810913Y1785937D01*
X1810287*
X1809663Y1786250*
X1809350Y1786875*
Y1788750*
X1809663Y1789375*
X1810287Y1789687*
X1810913*
X1811537Y1789375*
X1811850Y1788750*
Y1786875*
X1811537Y1786250*
X1809663Y1789375*
X1829350Y1785000D02*
X1864350D01*
Y1782500*
X1861850Y1780000*
X1864350Y1777500*
Y1775000*
X1829350*
Y1785000*
X1834037Y1755313D02*
X1834663Y1755000D01*
X1834975Y1754375*
X1834663Y1753750*
X1834037Y1753437*
X1831850*
Y1757187*
X1834037*
X1834663Y1756875*
X1834975Y1756250*
X1834663Y1755625*
X1834037Y1755313*
X1831850*
X1833413Y1856250D02*
X1833100Y1855937D01*
X1832787Y1855313*
X1833100Y1854687*
X1833413Y1854375*
X1836537*
Y1853750*
Y1854375D02*
Y1855625D01*
X1834350Y1778437D02*
X1836850Y1782187D01*
X1834350*
X1839350Y1778750D02*
X1839975Y1778437D01*
X1840913*
X1841537Y1778750*
X1841850Y1779375*
Y1779687*
X1841537Y1780313*
X1840913Y1780625*
X1839350*
Y1782187*
X1841850*
X1844975Y1778437D02*
X1846225D01*
X1845600D02*
Y1782187D01*
X1844975Y1781563*
X1849350Y1778437D02*
X1851850Y1782187D01*
X1849350*
X1854350Y1779375D02*
X1854663Y1780000D01*
X1855287Y1780313*
X1855913*
X1856537Y1780000*
X1856850Y1779375*
X1856537Y1778750*
X1855913Y1778437*
X1855287*
X1854663Y1778750*
X1854350Y1779375*
Y1780313*
X1854663Y1781250*
X1855287Y1781875*
X1855913Y1782187*
X1836850Y1875937D02*
Y1879687D01*
X1839037*
X1839663Y1879375*
X1839975Y1878750*
X1839663Y1878125*
X1839037Y1877813*
X1836850*
X1839037D02*
X1839975Y1875937D01*
X1841850Y1876875D02*
X1842163Y1877500D01*
X1842787Y1877813*
X1843413*
X1844037Y1877500*
X1844350Y1876875*
X1844037Y1876250*
X1843413Y1875937*
X1842787*
X1842163Y1876250*
X1841850Y1876875*
Y1877813*
X1842163Y1878750*
X1842787Y1879375*
X1843413Y1879687*
X1847787Y1877813D02*
X1848413D01*
X1849037Y1878125*
X1849350Y1878750*
X1849037Y1879375*
X1848413Y1879687*
X1847787*
X1847163Y1879375*
X1846850Y1878750*
X1847163Y1878125*
X1847787Y1877813*
X1847163Y1877500*
X1846850Y1876875*
X1847163Y1876250*
X1847787Y1875937*
X1848413*
X1849037Y1876250*
X1849350Y1876875*
X1849037Y1877500*
X1848413Y1877813*
X1853413Y1875937D02*
Y1879687D01*
X1851850Y1877187*
X1854350*
X1842787Y1706563D02*
X1843413Y1706250D01*
X1843725Y1705625*
X1843413Y1705000*
X1842787Y1704687*
X1840600*
Y1708437*
X1842787*
X1843413Y1708125*
X1843725Y1707500*
X1843413Y1706875*
X1842787Y1706563*
X1840600*
X1838413Y1716563D02*
X1837787Y1716250D01*
X1837475Y1715625*
X1837787Y1715000*
X1838413Y1714687*
X1840600*
Y1718437*
X1838413*
X1837787Y1718125*
X1837475Y1717500*
X1837787Y1716875*
X1838413Y1716563*
X1840600*
X1849975Y1824063D02*
X1849663Y1823750D01*
X1849037Y1823437*
X1848100*
X1847475Y1823750*
X1847163Y1824063*
X1846850Y1824687*
Y1825937*
X1847163Y1826563*
X1847475Y1826875*
X1848100Y1827187*
X1849037*
X1849663Y1826875*
X1849975Y1826563*
X1851850Y1823437D02*
Y1827187D01*
X1853725*
X1854350Y1826875*
X1854663Y1826563*
X1854975Y1825937*
Y1824687*
X1854663Y1824063*
X1854350Y1823750*
X1853725Y1823437*
X1851850*
X1858413D02*
Y1827187D01*
X1856850Y1824687*
X1859350*
X1861850Y1823750D02*
X1862475Y1823437D01*
X1863413*
X1864037Y1823750*
X1864350Y1824375*
Y1824687*
X1864037Y1825313*
X1863413Y1825625*
X1861850*
Y1827187*
X1864350*
X1867475Y1823437D02*
X1868725D01*
X1868100D02*
Y1827187D01*
X1867475Y1826563*
X1872787Y1825313D02*
X1873413D01*
X1874037Y1825625*
X1874350Y1826250*
X1874037Y1826875*
X1873413Y1827187*
X1872787*
X1872163Y1826875*
X1871850Y1826250*
X1872163Y1825625*
X1872787Y1825313*
X1872163Y1825000*
X1871850Y1824375*
X1872163Y1823750*
X1872787Y1823437*
X1873413*
X1874037Y1823750*
X1874350Y1824375*
X1874037Y1825000*
X1873413Y1825313*
X1846850Y1878437D02*
Y1882187D01*
X1844663*
X1844037Y1881875*
X1843725Y1881250*
X1844037Y1880625*
X1844663Y1880313*
X1846850*
X1844663D02*
X1843725Y1878437D01*
X1841225D02*
X1839975D01*
X1840600D02*
Y1882187D01*
X1841225Y1881563*
X1836537Y1878750D02*
X1835913Y1878437D01*
X1835287*
X1834663Y1878750*
X1834350Y1879375*
Y1881250*
X1834663Y1881875*
X1835287Y1882187*
X1835913*
X1836537Y1881875*
X1836850Y1881250*
Y1879375*
X1836537Y1878750*
X1834663Y1881875*
X1831850Y1878750D02*
X1831225Y1878437D01*
X1830287*
X1829663Y1878750*
X1829350Y1879375*
Y1879687*
X1829663Y1880313*
X1830287Y1880625*
X1831850*
Y1882187*
X1829350*
X1851850Y1753437D02*
X1853413Y1757187D01*
X1854975Y1753437*
X1852475Y1755000D02*
X1854350D01*
X1858725Y1849687D02*
X1859975D01*
X1859350D02*
Y1853437D01*
X1858725Y1852813*
X1863413Y1850000D02*
X1864037Y1849687D01*
X1864663*
X1865287Y1850000*
X1865600Y1850625*
Y1852500*
X1865287Y1853125*
X1864663Y1853437*
X1864037*
X1863413Y1853125*
X1863100Y1852500*
Y1850625*
X1863413Y1850000*
X1865287Y1853125*
X1860600Y1704687D02*
X1862163Y1708437D01*
X1863725Y1704687*
X1861225Y1706250D02*
X1863100D01*
X1860600Y1714687D02*
X1859037Y1718437D01*
X1857475Y1714687*
X1859975Y1716250D02*
X1858100D01*
X1874037Y1755000D02*
X1874975D01*
Y1754687*
X1874663Y1754063*
X1874350Y1753750*
X1873725Y1753437*
X1873100*
X1872475Y1753750*
X1872163Y1754063*
X1871850Y1754687*
Y1755937*
X1872163Y1756563*
X1872475Y1756875*
X1873100Y1757187*
X1873725*
X1874350Y1756875*
X1874663Y1756563*
X1874975Y1755937*
X1873350Y1794000D02*
X1895350D01*
Y1786000*
X1873350*
Y1794000*
X1879350Y1775000D02*
G75*
G02X1891850Y1787500I12500D01*
G01*
G75*
G02X1904350Y1775000J-12500*
G01*
Y1773500*
G75*
G02X1901850Y1767500I-8493J18*
G01*
X1881850*
G75*
G02X1879350Y1773500I5993J6018*
G01*
Y1775000*
X1882787Y1706250D02*
X1883725D01*
Y1705937*
X1883413Y1705313*
X1883100Y1705000*
X1882475Y1704687*
X1881850*
X1881225Y1705000*
X1880913Y1705313*
X1880600Y1705937*
Y1707187*
X1880913Y1707813*
X1881225Y1708125*
X1881850Y1708437*
X1882475*
X1883100Y1708125*
X1883413Y1707813*
X1883725Y1707187*
X1878413Y1716250D02*
X1877475D01*
Y1715937*
X1877787Y1715313*
X1878100Y1715000*
X1878725Y1714687*
X1879350*
X1879975Y1715000*
X1880287Y1715313*
X1880600Y1715937*
Y1717187*
X1880287Y1717813*
X1879975Y1718125*
X1879350Y1718437*
X1878725*
X1878100Y1718125*
X1877787Y1717813*
X1877475Y1717187*
X1881850Y1760937D02*
X1884350Y1764687D01*
X1881850*
X1887787Y1762813D02*
X1888413D01*
X1889037Y1763125*
X1889350Y1763750*
X1889037Y1764375*
X1888413Y1764687*
X1887787*
X1887163Y1764375*
X1886850Y1763750*
X1887163Y1763125*
X1887787Y1762813*
X1887163Y1762500*
X1886850Y1761875*
X1887163Y1761250*
X1887787Y1760937*
X1888413*
X1889037Y1761250*
X1889350Y1761875*
X1889037Y1762500*
X1888413Y1762813*
X1891850Y1764687D02*
Y1760937D01*
X1894975*
X1897163Y1761250D02*
X1897787Y1760937D01*
X1898413*
X1899037Y1761250*
X1899350Y1761875*
Y1763750*
X1899037Y1764375*
X1898413Y1764687*
X1897787*
X1897163Y1764375*
X1896850Y1763750*
Y1761875*
X1897163Y1761250*
X1899037Y1764375*
X1901850Y1761250D02*
X1902475Y1760937D01*
X1903413*
X1904037Y1761250*
X1904350Y1761875*
Y1762187*
X1904037Y1762813*
X1903413Y1763125*
X1901850*
Y1764687*
X1904350*
X1881225Y1878437D02*
X1881537Y1878750D01*
X1882163Y1879063*
X1883100*
X1883725Y1878750*
X1884037Y1878437*
X1884350Y1877813*
Y1876563*
X1884037Y1875937*
X1883725Y1875625*
X1883100Y1875313*
X1882163*
X1881537Y1875625*
X1881225Y1875937*
X1878725Y1879063D02*
X1877475D01*
X1878100D02*
Y1875313D01*
X1878725Y1875937*
X1874037Y1878750D02*
X1873413Y1879063D01*
X1872787*
X1872163Y1878750*
X1871850Y1878125*
Y1876250*
X1872163Y1875625*
X1872787Y1875313*
X1873413*
X1874037Y1875625*
X1874350Y1876250*
Y1878125*
X1874037Y1878750*
X1872163Y1875625*
X1869037Y1878750D02*
X1868413Y1879063D01*
X1867787*
X1867163Y1878750*
X1866850Y1878125*
X1867163Y1877500*
X1867787Y1877187*
X1868413*
X1867787D02*
X1867163Y1876875D01*
X1866850Y1876250*
X1867163Y1875625*
X1867787Y1875313*
X1868413*
X1869037Y1875625*
X1884850Y1866500D02*
X1868850D01*
Y1873500*
X1884850*
Y1866500*
X1888725Y1796563D02*
X1889037Y1796250D01*
X1889663Y1795937*
X1890600*
X1891225Y1796250*
X1891537Y1796563*
X1891850Y1797187*
Y1798437*
X1891537Y1799063*
X1891225Y1799375*
X1890600Y1799687*
X1889663*
X1889037Y1799375*
X1888725Y1799063*
X1886225Y1795937D02*
X1884975D01*
X1885600D02*
Y1799687D01*
X1886225Y1799063*
X1881537Y1796250D02*
X1880913Y1795937D01*
X1880287*
X1879663Y1796250*
X1879350Y1796875*
Y1798750*
X1879663Y1799375*
X1880287Y1799687*
X1880913*
X1881537Y1799375*
X1881850Y1798750*
Y1796875*
X1881537Y1796250*
X1879663Y1799375*
X1875287Y1795937D02*
Y1799687D01*
X1876850Y1797187*
X1874350*
X1894350Y1820000D02*
X1819350D01*
Y1822500*
X1821850Y1825000*
X1819350Y1827500*
Y1830000*
X1894350*
Y1820000*
Y1872500D02*
X1819350D01*
Y1875000*
X1821850Y1877500*
X1819350Y1880000*
Y1882500*
X1894350*
Y1872500*
X1901850Y1810937D02*
X1899350D01*
X1901537Y1813125*
X1901850Y1813750*
X1901537Y1814375*
X1900913Y1814687*
X1899975*
X1899350Y1814375*
X1904663Y1810937D02*
X1904975Y1811250D01*
X1904663Y1811563*
X1904350Y1811250*
X1904663Y1810937*
X1911850D02*
X1909350D01*
X1911537Y1813125*
X1911850Y1813750*
X1911537Y1814375*
X1910913Y1814687*
X1909975*
X1909350Y1814375*
X1914350Y1814687D02*
Y1811875D01*
X1914663Y1811250*
X1915287Y1810937*
X1916537*
X1917163Y1811250*
X1917475Y1811875*
Y1814687*
X1919350Y1810937D02*
Y1814687D01*
X1922475*
X1921850Y1812813D02*
X1919350D01*
X1904037Y1857500D02*
X1900287Y1855937D01*
X1904037Y1854375*
X1900287Y1852500D02*
X1904037D01*
Y1850313*
X1903725Y1849687*
X1903100Y1849375*
X1902475Y1849687*
X1902163Y1850313*
Y1852500*
Y1850313D02*
X1900287Y1849375D01*
Y1846875D02*
Y1845625D01*
Y1846250D02*
X1904037D01*
X1903413Y1846875*
X1900600Y1842187D02*
X1900287Y1841563D01*
Y1840937*
X1900600Y1840313*
X1901225Y1840000*
X1903100*
X1903725Y1840313*
X1904037Y1840937*
Y1841563*
X1903725Y1842187*
X1903100Y1842500*
X1901225*
X1900600Y1842187*
X1903725Y1840313*
X1900600Y1837187D02*
X1900287Y1836563D01*
Y1835937*
X1900600Y1835313*
X1901225Y1835000*
X1901850Y1835313*
X1902163Y1835937*
Y1836563*
Y1835937D02*
X1902475Y1835313D01*
X1903100Y1835000*
X1903725Y1835313*
X1904037Y1835937*
Y1836563*
X1903725Y1837187*
X1903725Y1749063D02*
X1904037Y1748750D01*
X1904663Y1748437*
X1905600*
X1906225Y1748750*
X1906537Y1749063*
X1906850Y1749687*
Y1750937*
X1906537Y1751563*
X1906225Y1751875*
X1905600Y1752187*
X1904663*
X1904037Y1751875*
X1903725Y1751563*
X1901225Y1748437D02*
X1899975D01*
X1900600D02*
Y1752187D01*
X1901225Y1751563*
X1896537Y1748750D02*
X1895913Y1748437D01*
X1895287*
X1894663Y1748750*
X1894350Y1749375*
Y1751250*
X1894663Y1751875*
X1895287Y1752187*
X1895913*
X1896537Y1751875*
X1896850Y1751250*
Y1749375*
X1896537Y1748750*
X1894663Y1751875*
X1890287Y1748437D02*
Y1752187D01*
X1891850Y1749687*
X1889350*
X1906850Y1862500D02*
X1921850D01*
Y1827500*
X1906850*
Y1862500*
X1907850Y1756000D02*
X1885850D01*
Y1764000*
X1907850*
Y1756000*
X1914350Y1820937D02*
Y1824687D01*
X1912163*
X1911537Y1824375*
X1911225Y1823750*
X1911537Y1823125*
X1912163Y1822813*
X1914350*
X1912163D02*
X1911225Y1820937D01*
X1908725D02*
X1907475D01*
X1908100D02*
Y1824687D01*
X1908725Y1824063*
X1904037Y1821250D02*
X1903413Y1820937D01*
X1902787*
X1902163Y1821250*
X1901850Y1821875*
Y1823750*
X1902163Y1824375*
X1902787Y1824687*
X1903413*
X1904037Y1824375*
X1904350Y1823750*
Y1821875*
X1904037Y1821250*
X1902163Y1824375*
X1897787Y1820937D02*
Y1824687D01*
X1899350Y1822187*
X1896850*
X1919350Y1797500D02*
G75*
G02X1909350Y1787500I-10000D01*
G01*
G75*
G02X1899350Y1797500J10000*
G01*
G75*
G02X1909350Y1807500I10000*
G01*
G75*
G02X1919350Y1797500J-10000*
G01*
X1921850Y1787813D02*
X1919350D01*
X1920600Y1789063D02*
Y1786563D01*
D02*
D11*
X1706850Y1727500D02*
X1894350D01*
Y1701250*
X1706850*
Y1727500*
G36*
X1894350*
Y1701250*
X1706850*
Y1727500*
G37*
X1750600Y1722500D02*
Y1742500D01*
X1753100*
Y1722500*
X1750600*
G36*
Y1742500*
X1753100*
Y1722500*
X1750600*
G37*
X1774350D02*
Y1757500D01*
X1789350*
Y1722500*
X1774350*
G36*
Y1757500*
X1789350*
Y1722500*
X1774350*
G37*
X1891850Y1762500D02*
Y1725000D01*
X1873100*
Y1762500*
X1891850*
G36*
Y1725000*
X1873100*
Y1762500*
X1891850*
G37*
X1894350Y1701250D02*
X1750600D01*
Y1737500*
X1894350*
Y1701250*
G36*
X1750600*
Y1737500*
X1894350*
Y1701250*
G37*
X1914350Y1787500D02*
X1921850D01*
Y1735000*
X1914350*
Y1787500*
G36*
X1921850*
Y1735000*
X1914350*
Y1787500*
G37*
X1921850Y1730000D02*
X1879350D01*
Y1750000*
X1921850*
Y1730000*
G36*
X1879350*
Y1750000*
X1921850*
Y1730000*
G37*
D02*
D15*
X1674350Y1902500D02*
X1926850D01*
Y1697500*
X1674350*
Y1902500*
D02*
D71*
X1708800Y1852500D03*
X1711300Y1882500D03*
X1719900Y1852500D03*
X1722400Y1882500D03*
X1728800Y1852500D03*
X1739900D03*
X1751300Y1865000D03*
X1762400D03*
X1771300Y1767500D03*
Y1887500D03*
X1782400Y1767500D03*
Y1887500D03*
X1841850Y1845000D03*
D03*
Y1857500D03*
D03*
X1851300Y1880000D03*
X1862400D03*
X1901300Y1815000D03*
X1912400D03*
D02*
D20*
X1705850Y1882500D02*
G75*
G02X1705250I-300D01*
G01*
G75*
G02X1705850I300*
G01*
X1712461Y1856450D02*
X1716239D01*
X1714961Y1886450D02*
X1718739D01*
X1716239Y1848550D02*
X1712461D01*
X1718739Y1878550D02*
X1714961D01*
X1725350Y1852500D02*
G75*
G02X1725950I300D01*
G01*
G75*
G02X1725350I-300*
G01*
X1732461Y1856450D02*
X1736239D01*
Y1848550D02*
X1732461D01*
X1745350Y1852500D02*
G75*
G02X1745950I300D01*
G01*
G75*
G02X1745350I-300*
G01*
X1747900Y1830611D02*
Y1834389D01*
X1751850Y1843500D02*
G75*
G02Y1844100J300D01*
G01*
G75*
G02Y1843500J-300*
G01*
X1754961Y1868950D02*
X1758739D01*
X1755800Y1834389D02*
Y1830611D01*
X1758739Y1861050D02*
X1754961D01*
X1765850Y1767500D02*
G75*
G02X1765250I-300D01*
G01*
G75*
G02X1765850I300*
G01*
X1767850Y1865000D02*
G75*
G02X1768450I300D01*
G01*
G75*
G02X1767850I-300*
G01*
X1774961Y1771450D02*
X1778739D01*
X1774961Y1891450D02*
X1778739D01*
Y1763550D02*
X1774961D01*
X1778739Y1883550D02*
X1774961D01*
X1787850Y1887500D02*
G75*
G02X1788450I300D01*
G01*
G75*
G02X1787850I-300*
G01*
X1854961Y1883950D02*
X1858739D01*
X1857900Y1879389D02*
Y1875611D01*
X1858739Y1876050D02*
X1854961D01*
X1861850Y1888500D02*
G75*
G03Y1889100J300D01*
G01*
G75*
G03Y1888500J-300*
G01*
X1865800Y1875611D02*
Y1879389D01*
X1867850Y1880000D02*
G75*
G02X1868450I300D01*
G01*
G75*
G02X1867850I-300*
G01*
X1895850Y1815000D02*
G75*
G02X1895250I-300D01*
G01*
G75*
G02X1895850I300*
G01*
X1904961Y1818950D02*
X1908739D01*
Y1811050D02*
X1904961D01*
D02*
D92*
X1914350Y1835000D03*
D03*
Y1845000D03*
D03*
Y1855000D03*
D03*
D02*
D93*
X1684350Y1812500D02*
X1679350D01*
Y1842500*
X1686850*
X1684350Y1812500D02*
X1679350D01*
Y1730000*
X1721850*
Y1750000*
X1687650Y1867500D02*
X1686850D01*
Y1852500*
X1689350Y1757500D02*
Y1742500D01*
X1690150*
X1689350Y1757500D02*
Y1782500D01*
X1699350*
X1689350D02*
Y1757500D01*
X1691850Y1812500D02*
Y1782500D01*
X1689350*
X1691850Y1812500D02*
Y1782500D01*
X1699350*
X1695150Y1797500D02*
X1691850D01*
Y1812500*
X1699350Y1782500D02*
X1689350D01*
X1699350D02*
X1689350D01*
Y1767500*
X1781850*
Y1750000*
X1699350Y1812500D02*
Y1852500D01*
X1708800*
X1699350Y1812500D02*
X1724750D01*
X1703550Y1742500D02*
X1706850D01*
Y1735000D02*
Y1757500D01*
X1699350*
X1706850Y1742500D02*
Y1735000D01*
Y1782500D02*
Y1742500D01*
X1708550Y1797500D02*
X1714350D01*
Y1782500*
X1709350Y1837500D02*
Y1825000D01*
X1749350*
Y1867500*
X1739350*
X1709350D02*
X1701050D01*
X1709350D02*
Y1897500D01*
X1771300*
X1709350Y1867500D02*
X1708800D01*
Y1852500*
X1714350Y1782500D02*
X1724750D01*
X1719350Y1837500D02*
Y1825000D01*
X1764750*
X1719350Y1867500D02*
X1729350D01*
X1722400Y1882500D02*
X1729350D01*
X1724750Y1767500D02*
Y1782500D01*
X1729350*
X1724750Y1797500D02*
Y1812500D01*
X1729350*
Y1837500D02*
Y1852500D01*
X1719900*
X1729350Y1867500D02*
Y1882500D01*
X1739850*
X1738950Y1797500D02*
X1739350D01*
Y1782500*
Y1767500*
X1738950*
X1739350Y1812500D02*
X1749350D01*
X1739350Y1837500D02*
Y1852500D01*
X1686850*
X1739350Y1837500D02*
Y1845000D01*
X1751850*
X1739900Y1852500D02*
X1739350D01*
Y1837500*
X1741850Y1750000D02*
Y1735000D01*
X1706850*
X1749350Y1782500D02*
X1759350D01*
X1749350Y1812500D02*
Y1782500D01*
X1751850Y1838050D02*
Y1845000D01*
X1761850*
X1759350Y1782500D02*
X1769350D01*
X1759350Y1812500D02*
X1769350D01*
X1761850Y1758000D02*
Y1750000D01*
Y1767000D02*
X1738950D01*
Y1767500*
X1761850Y1845000D02*
Y1835000D01*
X1799350*
X1761850Y1875000D02*
Y1865000D01*
X1779350*
Y1855000*
X1791850*
Y1845000*
X1764750Y1825000D02*
X1751850D01*
Y1826950*
X1769350Y1812500D02*
X1779350D01*
X1771300Y1767500D02*
X1761850D01*
Y1767000*
X1771300Y1887500D02*
Y1897500D01*
Y1887500D02*
X1761850D01*
Y1875000*
X1771300Y1897500D02*
X1811850D01*
X1771850Y1845000D02*
Y1855000D01*
X1751300*
Y1865000*
X1771850Y1875000D02*
X1781850D01*
X1778950Y1825000D02*
X1789350D01*
Y1812500*
X1781850Y1750000D02*
Y1767500D01*
X1789350*
Y1782500*
X1781850Y1845000D02*
Y1857500D01*
X1801850*
Y1882500*
X1841850*
Y1892500*
X1781850Y1875000D02*
Y1887500D01*
X1782400*
Y1767500D02*
X1781850D01*
Y1750000*
X1789350Y1782500D02*
Y1797500D01*
X1799350*
Y1835000*
X1791850Y1845000D02*
Y1853300D01*
Y1875000D02*
Y1866700D01*
X1799350Y1835000D02*
X1801850D01*
Y1853300*
Y1767500D02*
Y1750000D01*
Y1866700D02*
Y1887500D01*
X1782400*
X1811850Y1767500D02*
X1821850D01*
Y1750000*
X1811850Y1797500D02*
Y1780000D01*
X1812650*
X1811850Y1897500D02*
X1821850D01*
Y1892500*
Y1810000D02*
Y1800000D01*
X1826850Y1795000*
X1831850*
X1821850Y1810000D02*
Y1820000D01*
X1809350*
Y1875000*
X1851850*
Y1862500*
X1821850Y1840000D02*
X1811850D01*
Y1897500*
X1821850Y1840000D02*
Y1825000D01*
X1831850*
Y1810000*
Y1720000D02*
X1781850D01*
Y1750000*
X1831850Y1840000D02*
Y1825000D01*
X1891850*
Y1840000*
X1841850Y1765000D02*
Y1780000D01*
X1826050*
X1841850Y1765000D02*
Y1750000D01*
X1851850Y1795000D02*
X1841850D01*
X1851850Y1892500D02*
Y1880000D01*
X1851300*
X1861850Y1765000D02*
Y1780000D01*
X1851850*
Y1795000*
X1861850Y1862500D02*
Y1871950D01*
Y1862500D02*
Y1851250D01*
X1891850*
Y1862500*
X1861850Y1892500D02*
Y1883050D01*
X1871850Y1810000D02*
Y1825000D01*
X1881850*
Y1840000*
X1871850Y1862500D02*
Y1870000D01*
Y1892500D02*
Y1880000D01*
X1891850*
X1904350Y1867500*
Y1855000*
X1914350*
X1877650Y1775000D02*
X1861850D01*
Y1765000*
X1877650Y1790000D02*
Y1775000D01*
X1881850Y1750000D02*
X1891850D01*
Y1775000*
X1881850Y1750000D02*
Y1720000D01*
X1831850*
X1881850Y1810000D02*
X1891850D01*
X1881850Y1840000D02*
Y1851250D01*
X1853100*
X1881850Y1862500D02*
Y1870000D01*
X1884350Y1775000D02*
X1877650D01*
X1890150Y1760000D02*
X1891850D01*
Y1775000*
X1891050Y1790000D02*
X1891850D01*
Y1797500*
Y1810000*
Y1775000*
Y1810000D02*
Y1840000D01*
Y1862500D02*
Y1840000D01*
Y1892500D02*
Y1880000D01*
X1901300Y1870550*
Y1815000*
X1891850Y1892500D02*
Y1880000D01*
X1862400*
X1899350Y1775000D02*
Y1730000D01*
X1721850*
Y1750000*
X1903550Y1760000D02*
X1904350D01*
Y1775000*
X1899350*
X1904350Y1797500D02*
X1891850D01*
X1914350D02*
Y1815000D01*
X1912400*
X1914350Y1835000D02*
X1891850D01*
Y1840000*
X1914350Y1845000D02*
Y1855000D01*
D02*
D97*
X1686850Y1710000D03*
D03*
Y1890000D03*
D03*
X1914350Y1710000D03*
D03*
Y1890000D03*
D03*
D02*
D99*
X1686850Y1842500D03*
D03*
Y1852500D03*
D03*
X1689350Y1757500D03*
D03*
X1699350D03*
D03*
X1904350Y1797500D03*
D03*
X1914350D03*
D03*
D02*
D102*
X1751300Y1865000D02*
Y1882500D01*
X1748850*
X1831850Y1765000D02*
Y1720000D01*
X1851850Y1765000D02*
Y1750000D01*
X1861850*
X1871850Y1870000D02*
X1872350D01*
X1881850D02*
X1881350D01*
D02*
D110*
X1751850Y1826950D03*
Y1838050D03*
X1853100Y1851250D03*
D03*
X1861850Y1871950D03*
Y1883050D03*
D02*
D111*
X1709350Y1837500D03*
D03*
Y1867500D03*
D03*
X1719350Y1837500D03*
D03*
Y1867500D03*
D03*
X1729350Y1782500D03*
D03*
Y1812500D03*
D03*
Y1837500D03*
D03*
Y1867500D03*
D03*
X1739350Y1782500D03*
D03*
Y1812500D03*
D03*
Y1837500D03*
D03*
Y1867500D03*
D03*
X1749350Y1782500D03*
D03*
Y1812500D03*
D03*
X1759350Y1782500D03*
D03*
Y1812500D03*
D03*
X1761850Y1845000D03*
D03*
Y1875000D03*
D03*
X1769350Y1782500D03*
D03*
Y1812500D03*
D03*
X1771850Y1845000D03*
D03*
Y1875000D03*
D03*
X1779350Y1782500D03*
D03*
Y1812500D03*
D03*
X1781850Y1845000D03*
D03*
Y1875000D03*
D03*
X1789350Y1782500D03*
D03*
Y1812500D03*
D03*
X1791850Y1845000D03*
D03*
Y1875000D03*
D03*
X1821850Y1810000D03*
D03*
Y1840000D03*
D03*
Y1862500D03*
D03*
Y1892500D03*
D03*
X1831850Y1765000D03*
D03*
Y1795000D03*
D03*
Y1810000D03*
D03*
Y1840000D03*
D03*
Y1862500D03*
D03*
Y1892500D03*
D03*
X1841850Y1765000D03*
D03*
Y1795000D03*
D03*
Y1810000D03*
D03*
Y1840000D03*
D03*
Y1862500D03*
D03*
Y1892500D03*
D03*
X1851850Y1765000D03*
D03*
Y1795000D03*
D03*
Y1810000D03*
D03*
Y1840000D03*
D03*
Y1862500D03*
D03*
Y1892500D03*
D03*
X1861850Y1765000D03*
D03*
Y1795000D03*
D03*
Y1810000D03*
D03*
Y1840000D03*
D03*
Y1862500D03*
D03*
Y1892500D03*
D03*
X1871850Y1810000D03*
D03*
Y1840000D03*
D03*
Y1862500D03*
D03*
Y1892500D03*
D03*
X1881850Y1810000D03*
D03*
Y1840000D03*
D03*
Y1862500D03*
D03*
Y1892500D03*
D03*
X1891850Y1810000D03*
D03*
Y1840000D03*
D03*
Y1862500D03*
D03*
Y1892500D03*
D03*
D02*
D112*
X1724750Y1767500D03*
Y1797500D03*
X1738950Y1767500D03*
Y1797500D03*
X1764750Y1825000D03*
X1778950D03*
D02*
D113*
X1739850Y1882500D03*
X1748850D03*
X1872350Y1870000D03*
X1881350D03*
D02*
D114*
X1684350Y1812500D03*
D03*
X1691850D03*
D03*
X1699350Y1782500D03*
D03*
Y1812500D03*
D03*
X1706850Y1782500D03*
D03*
X1714350D03*
D03*
X1884350Y1775000D03*
D03*
X1891850D03*
D03*
X1899350D03*
D03*
D02*
D115*
X1801850Y1767500D03*
D03*
Y1797500D03*
D03*
X1811850Y1767500D03*
D03*
Y1797500D03*
D03*
D02*
D116*
X1761850Y1758000D03*
Y1767000D03*
D02*
D117*
X1687650Y1867500D03*
X1690150Y1742500D03*
X1695150Y1797500D03*
X1701050Y1867500D03*
X1703550Y1742500D03*
X1708550Y1797500D03*
X1791850Y1853300D03*
Y1866700D03*
X1801850Y1853300D03*
Y1866700D03*
X1812650Y1780000D03*
X1826050D03*
X1877650Y1790000D03*
X1890150Y1760000D03*
X1891050Y1790000D03*
X1903550Y1760000D03*
D02*
D131*
X1721850Y1750000D03*
D03*
X1741850D03*
D03*
X1761850D03*
D03*
X1781850D03*
D03*
X1801850D03*
D03*
X1821850D03*
D03*
X1841850D03*
D03*
X1861850D03*
D03*
X1881850D03*
D03*
X0Y0D02*
M02*
